<svg width="952" height="599" viewBox="0 0 952 599" fill="none" xmlns="http://www.w3.org/2000/svg">
<path d="M344.34 225.101L347.152 230.785C347.303 231.087 347.593 231.294 347.923 231.349L354.208 232.257C355.048 232.381 355.379 233.413 354.773 233.991L350.225 238.422C349.991 238.656 349.88 239 349.935 239.33L351.01 245.578C351.148 246.417 350.28 247.05 349.522 246.651L343.899 243.692C343.596 243.541 343.251 243.541 342.948 243.692L337.325 246.651C336.581 247.05 335.699 246.403 335.837 245.578L336.912 239.33C336.967 239 336.857 238.656 336.623 238.422L332.075 233.991C331.468 233.399 331.799 232.367 332.64 232.257L338.924 231.349C339.255 231.294 339.544 231.087 339.696 230.785L342.507 225.101C342.879 224.344 343.968 224.344 344.34 225.101Z" fill="#E0E0E0"/>
<path d="M245.576 55.5676L248.387 61.2509C248.539 61.5536 248.828 61.7601 249.159 61.8151L255.443 62.7233C256.284 62.8472 256.615 63.8792 256.008 64.4572L251.461 68.8882C251.226 69.1222 251.116 69.4662 251.171 69.7965L252.246 76.0439C252.384 76.8833 251.516 77.5163 250.758 77.1173L245.135 74.1587C244.832 74.0073 244.487 74.0073 244.184 74.1587L238.561 77.1173C237.817 77.5163 236.935 76.8696 237.073 76.0439L238.148 69.7965C238.203 69.4662 238.093 69.1222 237.858 68.8882L233.311 64.4572C232.704 63.8655 233.035 62.8334 233.876 62.7233L240.16 61.8151C240.491 61.7738 240.78 61.5536 240.932 61.2509L243.743 55.5676C244.115 54.8108 245.204 54.8108 245.576 55.5676Z" fill="#E0E0E0"/>
<path d="M365.104 64.8871L364.402 68.4236C364.36 68.6163 364.415 68.8089 364.553 68.9465L367.075 71.5336C367.406 71.8776 367.199 72.4556 366.731 72.5106L363.147 72.9372C362.955 72.9647 362.789 73.0748 362.706 73.24L361.025 76.4325C360.805 76.8591 360.184 76.8453 359.978 76.405L358.462 73.1299C358.379 72.951 358.228 72.8271 358.035 72.7996L354.479 72.1804C354.01 72.0978 353.831 71.5061 354.19 71.1896L356.849 68.7401C356.987 68.6163 357.056 68.4236 357.029 68.231L356.519 64.6669C356.45 64.1853 356.96 63.8412 357.373 64.0752L360.529 65.8366C360.694 65.9329 360.901 65.9329 361.066 65.8503L364.305 64.2541C364.732 64.0476 365.228 64.4192 365.132 64.8871H365.104Z" fill="#E0E0E0"/>
<path d="M67.3218 205.354L66.2607 210.639C66.2055 210.914 66.2882 211.203 66.4949 211.409L70.2572 215.276C70.7534 215.785 70.4502 216.652 69.7336 216.735L64.3726 217.368C64.0832 217.395 63.8352 217.574 63.7111 217.822L61.1891 222.583C60.8584 223.216 59.935 223.189 59.6318 222.542L57.3717 217.657C57.2477 217.395 57.0134 217.216 56.7378 217.161L51.4182 216.239C50.7153 216.116 50.4535 215.235 50.9772 214.753L54.9462 211.107C55.1529 210.914 55.2632 210.625 55.2218 210.35L54.4501 205.024C54.3536 204.309 55.1116 203.799 55.7317 204.144L60.4312 206.772C60.6792 206.909 60.9824 206.923 61.2443 206.799L66.0815 204.419C66.7292 204.102 67.4596 204.666 67.308 205.368L67.3218 205.354Z" fill="#E0E0E0"/>
<path d="M417.258 395.421L495.122 598.16L438.771 598.243L371.504 432.933L417.258 395.421Z" fill="#F5F5F5"/>
<path d="M107.054 336.015L134.603 326.643L143.299 411.094L195.682 365.49L228.137 404.668C228.137 404.668 173.287 461.845 153.442 469.688C153.442 469.688 123.302 484.371 110.5 465.106C100.618 450.258 107.068 336.028 107.068 336.028L107.054 336.015Z" fill="#F5F5F5"/>
<path d="M372.152 285.498C371.297 266.219 370.429 246.844 366.584 227.936C362.725 209.029 357.943 190.603 345.94 175.479L234.876 182.332C230.728 199.465 226.552 217.024 228.481 234.541C230.356 251.55 237.935 267.925 236.874 285.003C236.13 297.071 231.114 308.383 227.448 319.9C223.782 331.418 221.467 344.189 226.042 355.376C227.2 358.197 228.853 360.936 231.417 362.587C234.573 364.596 238.542 364.651 242.276 364.624C286.694 364.321 331.111 362.931 375.459 360.454C374.357 335.464 373.254 310.488 372.138 285.498H372.152Z" fill="#E0E0E0"/>
<path d="M263.321 154.769C273.615 149.045 286.101 148.123 297.664 150.338C309.24 152.554 320.044 157.686 330.298 163.494C336.045 166.755 341.778 170.333 345.94 175.466C353.519 184.837 361.071 200.263 361.898 212.276C362.56 221.991 359.046 246.376 354.994 255.238C351.287 263.371 333.66 269.687 324.951 271.765L244.109 179.456C246.852 169.108 253.949 159.971 263.321 154.769Z" fill="#E0E0E0"/>
<path d="M249.622 167.429L268.792 163.838C258.511 188.869 256.141 245.949 250.366 272.398C243.2 262.201 226.511 231.129 227.282 218.703C228.054 206.276 226.8 165.503 249.622 167.429Z" fill="#E0E0E0"/>
<path d="M238.983 208.203C240.071 189.048 252.626 165.475 271.755 167.374L316.048 178.259C330.256 181.754 339.807 193.63 340.965 208.203C341.02 208.932 341.089 208.038 341.075 208.588L332.172 322.955L262.259 399.274L269.688 320.272C269.591 310.956 269.522 303.539 269.522 303.58C269.522 303.58 245.005 299.672 239.727 267.788C237.108 251.935 237.77 229.477 238.983 208.203Z" fill="#F5F5F5"/>
<path d="M251.014 234.046C250.945 236.206 252.737 238.05 254.997 238.147C257.257 238.257 259.131 236.592 259.2 234.431C259.269 232.271 257.477 230.427 255.231 230.33C252.971 230.22 251.083 231.885 251.028 234.046H251.014Z" fill="#E0E0E0"/>
<path d="M243.889 220.657C244.399 221.193 247.486 218.868 251.91 218.854C256.32 218.771 259.572 221.014 260.041 220.478C260.275 220.244 259.751 219.28 258.332 218.262C256.94 217.244 254.569 216.267 251.813 216.294C249.071 216.322 246.755 217.354 245.432 218.386C244.082 219.432 243.627 220.395 243.875 220.643L243.889 220.657Z" fill="#E0E0E0"/>
<path d="M289.285 233.73C289.216 235.89 291.007 237.734 293.267 237.83C295.528 237.94 297.402 236.275 297.471 234.115C297.54 231.954 295.748 230.11 293.502 230C291.242 229.89 289.354 231.555 289.298 233.716L289.285 233.73Z" fill="#E0E0E0"/>
<path d="M285.784 220.313C286.294 220.849 289.395 218.524 293.805 218.51C298.215 218.427 301.467 220.67 301.936 220.134C302.17 219.9 301.647 218.936 300.227 217.918C298.835 216.9 296.465 215.923 293.709 215.95C290.966 215.978 288.651 217.01 287.328 218.042C285.977 219.088 285.522 220.065 285.77 220.299L285.784 220.313Z" fill="#E0E0E0"/>
<path d="M272.279 255.018C272.292 254.77 269.55 254.316 265.112 253.765C263.982 253.655 262.921 253.435 262.728 252.678C262.452 251.866 262.921 250.655 263.458 249.334C264.506 246.61 265.595 243.747 266.738 240.748C271.286 228.528 274.58 218.482 274.084 218.303C273.588 218.125 269.495 227.881 264.947 240.115C263.858 243.128 262.811 246.004 261.805 248.743C261.391 250.022 260.661 251.481 261.253 253.16C261.557 253.999 262.397 254.605 263.114 254.797C263.831 255.018 264.465 255.018 265.03 255.045C269.508 255.252 272.279 255.265 272.292 255.004L272.279 255.018Z" fill="#E0E0E0"/>
<path d="M311.817 291.869C311.817 291.869 301.605 313.873 269.591 311.093L269.522 303.58C269.522 303.58 290.594 304.791 311.817 291.869Z" fill="#EBEBEB"/>
<path d="M287.038 204.377C287.479 205.575 291.875 204.983 297.057 205.575C302.253 206.056 306.429 207.542 307.118 206.469C307.421 205.96 306.69 204.832 304.995 203.676C303.314 202.533 300.64 201.446 297.526 201.116C294.411 200.8 291.572 201.309 289.698 202.079C287.796 202.85 286.859 203.799 287.038 204.364V204.377Z" fill="#E0E0E0"/>
<path d="M245.212 207.171C245.997 208.162 249.029 207.116 252.681 207.033C256.333 206.841 259.434 207.666 260.137 206.607C260.44 206.097 259.958 205.093 258.594 204.157C257.257 203.221 255.024 202.465 252.516 202.561C250.008 202.657 247.83 203.579 246.576 204.611C245.295 205.643 244.867 206.675 245.212 207.171Z" fill="#E0E0E0"/>
<path d="M247.431 178.975C249.346 174.158 254.597 171.227 259.779 170.925C264.961 170.622 270.046 172.535 274.553 175.094C293.681 185.924 303.686 212.372 322.594 223.588C327.238 226.34 333.247 223.739 337.202 227.399C341.171 231.074 343.776 236.963 341.64 241.931C344.134 238.449 346.67 234.899 348.076 230.853C349.482 226.808 349.619 222.115 347.442 218.414C345.788 215.606 342.894 213.487 342.081 210.336C341.364 207.57 342.439 204.653 342.288 201.804C342.136 198.901 340.744 196.203 339.297 193.685C331.814 180.736 321.588 169.053 308.468 161.842C299.896 157.136 290.125 154.411 280.354 154.838C270.583 155.251 260.854 158.925 253.756 165.64C249.581 169.59 245.198 173.677 247.417 178.975" fill="#E0E0E0"/>
<path d="M336.775 231.363C337.106 230.441 353.726 224.303 354.098 241.986C354.457 259.173 337.051 255.94 337.023 255.444C336.982 254.949 336.789 231.363 336.789 231.363H336.775Z" fill="#F5F5F5"/>
<path d="M342.219 248.839C342.288 248.784 342.522 249.045 343.032 249.265C343.528 249.486 344.382 249.623 345.278 249.265C347.084 248.564 348.558 245.66 348.6 242.55C348.613 240.981 348.255 239.495 347.69 238.284C347.139 237.032 346.312 236.165 345.388 236.027C344.479 235.835 343.831 236.385 343.638 236.881C343.418 237.362 343.528 237.706 343.445 237.734C343.404 237.775 343.073 237.459 343.197 236.743C343.266 236.399 343.459 235.986 343.859 235.656C344.272 235.312 344.865 235.133 345.512 235.188C346.835 235.257 348.062 236.454 348.696 237.803C349.399 239.151 349.84 240.816 349.826 242.578C349.771 246.045 348.062 249.321 345.581 250.077C344.382 250.421 343.363 250.077 342.825 249.678C342.288 249.265 342.191 248.88 342.246 248.853L342.219 248.839Z" fill="#E0E0E0"/>
<path d="M339.27 227.372C339.573 232.064 339.835 237.018 337.698 241.215C335.562 245.412 330.105 248.288 325.998 245.99C322.649 244.119 321.616 239.853 321.023 236.069C319.3 225.129 318.46 214.065 316.641 203.153L339.283 227.372H339.27Z" fill="#E0E0E0"/>
<path d="M283.193 263.288C284.875 265.448 285.412 268.435 284.599 271.035C283.786 273.636 281.65 275.797 279.045 276.622C278.012 276.953 276.854 277.076 275.834 276.705C274.029 276.044 273.119 274.076 272.389 272.301C271.782 270.829 271.176 269.343 270.57 267.87C270.363 267.375 270.156 266.811 270.391 266.315C270.639 265.792 271.273 265.6 271.824 265.462C275.503 264.54 279.183 263.632 282.849 262.71" fill="#EBEBEB"/>
<path d="M276.068 276.168C276.068 276.278 278.025 276.485 281.085 275.494C282.573 274.971 284.378 273.884 285.453 271.889C286.005 270.939 286.225 269.604 286.101 268.462C286.018 267.292 285.729 266.081 285.192 264.939C284.668 263.838 283.937 262.861 283.083 262.091L282.794 261.829L282.422 261.967C275.131 264.609 269.412 265.958 269.481 266.274C269.536 266.591 275.421 265.751 282.863 263.192L282.201 263.054C282.918 263.728 283.538 264.568 283.979 265.517C284.833 267.485 285.192 269.769 284.351 271.338C283.524 273.003 282.049 274.035 280.713 274.627C277.97 275.769 275.999 275.921 276.055 276.168H276.068Z" fill="#E0E0E0"/>
<path d="M354.787 327.662C353.065 326.574 330.326 322.047 330.326 322.047L275.586 323.932L256.003 327.703C256.003 327.703 252.874 388.485 253.426 389.572C253.977 390.659 279.472 411.301 280.561 412.388C281.636 413.475 333.812 395.489 333.812 395.489L367.797 333.4L354.787 327.662Z" fill="#F5F5F5"/>
<path d="M347.483 321.909C350.226 321.882 380.655 329.973 390.508 342.95C404.042 360.784 426.836 387.577 426.836 387.577L369.313 434.735L356.744 507.806C356.744 507.806 379.525 571.12 383.039 596.867C383.039 596.867 194.524 597.775 198.369 596.867C198.369 596.867 211.599 495.297 209.105 460.207C206.611 425.117 208.361 371.889 208.361 371.889L232.216 330.661L268.034 325.391C268.034 325.391 254.225 351.647 282.973 356.119C312.465 360.702 347.483 321.909 347.483 321.909Z" fill="#EBEBEB"/>
<path d="M263.514 326.01C263.514 326.01 230.507 330.496 219.551 333.083C208.595 335.657 165.763 381.976 165.763 381.976L209.946 429.121L228.909 389.434L263.514 326.024V326.01Z" fill="#EBEBEB"/>
<path d="M209.408 381.563C209.312 381.563 209.16 383.063 208.981 385.788C208.802 388.512 208.609 392.462 208.416 397.333C208.016 407.09 207.658 420.575 207.506 435.465C207.355 450.368 207.424 463.854 207.603 473.624C207.699 478.509 207.81 482.458 207.92 485.183C208.044 487.908 208.154 489.421 208.251 489.421C208.347 489.421 208.43 487.908 208.485 485.183C208.526 482.183 208.568 478.303 208.637 473.624C208.719 463.606 208.843 450.244 208.967 435.492C209.16 420.741 209.326 407.393 209.45 397.361C209.491 392.682 209.519 388.801 209.546 385.802C209.546 383.077 209.505 381.563 209.394 381.549L209.408 381.563Z" fill="#E0E0E0"/>
<path d="M107.633 281.425C107.633 281.425 104.215 273.182 108.281 270.815C112.346 268.435 138.379 260.302 141.218 261.32C144.057 262.338 145.104 263.756 145.876 266.838C146.634 269.921 147.42 271.957 147.42 271.957C147.42 271.957 149.942 269.48 154.476 271.806C154.476 271.806 159.203 274.242 159.892 276.32C160.581 278.384 159.547 281.219 158.693 283.31C157.838 285.416 152.712 293.204 152.712 293.204C152.712 293.204 152.767 299.713 148.453 306.621C144.14 313.529 135.678 315.442 134.327 320.423L136.243 342.551L105.979 359.807C105.979 359.807 106.241 332.148 106.682 320.011C107.123 307.873 107.04 295.695 106.241 291.773C105.442 287.851 106.42 282.058 107.647 281.439L107.633 281.425Z" fill="#F5F5F5"/>
<path d="M123.192 292.902C123.192 292.902 123.413 292.544 123.702 291.828C123.991 291.154 124.212 289.888 123.44 288.746L123.302 288.539L123.523 288.443C124.598 288.003 125.838 287.494 127.216 286.916L127.726 286.709L127.547 287.232C127.244 288.182 126.899 289.227 126.541 290.328V290.383L126.472 290.438C125.714 291.264 124.97 292.282 124.984 293.48C124.984 294.663 125.783 295.86 126.954 296.383C127.533 296.645 128.209 296.741 128.856 296.617C129.476 296.479 130.193 296.163 130.841 295.86C132.178 295.241 133.459 294.415 134.658 293.452C135.457 292.791 136.229 292.062 136.836 291.292L136.932 291.168H137.07C138.779 290.906 140.405 290.301 141.535 289.214C142.693 288.154 143.272 286.627 143.313 285.25V285.003L143.547 284.934C144.608 284.604 145.614 284.136 146.4 283.517C146.8 283.214 147.144 282.856 147.378 282.471C147.557 282.113 147.64 281.631 147.668 281.191C147.75 279.347 147.502 277.696 147.323 276.361C147.13 275.012 146.951 273.953 146.827 273.237C146.703 272.508 146.648 272.123 146.689 272.123C146.717 272.123 146.841 272.494 147.034 273.196C147.213 273.911 147.461 274.957 147.709 276.306C147.943 277.654 148.247 279.292 148.205 281.232C148.178 281.714 148.136 282.237 147.874 282.774C147.599 283.241 147.213 283.64 146.772 283.998C145.904 284.686 144.87 285.195 143.726 285.567L143.961 285.25C143.933 286.861 143.299 288.512 142.017 289.723C140.75 290.948 138.972 291.608 137.18 291.87L137.414 291.732C136.739 292.585 135.967 293.314 135.127 294.016C133.886 295.035 132.55 295.874 131.158 296.521C130.455 296.837 129.807 297.14 128.994 297.319C128.209 297.47 127.382 297.346 126.679 297.016C125.273 296.369 124.35 294.938 124.35 293.507C124.35 292.791 124.584 292.117 124.901 291.539C125.232 290.975 125.631 290.493 126.045 290.067L125.976 290.177C126.362 289.09 126.72 288.058 127.051 287.108L127.382 287.425C125.99 287.948 124.736 288.429 123.647 288.842L123.73 288.539C124.57 289.929 124.226 291.264 123.867 291.938C123.688 292.296 123.509 292.544 123.385 292.709C123.261 292.874 123.178 292.943 123.165 292.929L123.192 292.902Z" fill="#E0E0E0"/>
<path d="M113.986 278.576C113.986 278.576 114.455 278.37 115.323 278.136C116.191 277.888 117.459 277.572 119.03 277.173C120.656 276.774 122.517 276.333 124.543 275.838C125.59 275.59 126.679 275.343 127.809 275.081C128.925 274.833 130.152 274.489 131.488 274.641C132.866 274.765 133.983 275.783 134.548 276.843C135.154 277.916 135.457 279.017 135.747 280.049C136.312 282.127 136.587 284.053 136.767 285.663C136.946 287.273 137.015 288.581 137.056 289.475C137.097 290.383 137.084 290.879 137.042 290.879C136.932 290.879 136.725 288.897 136.27 285.718C136.022 284.136 135.705 282.251 135.127 280.228C134.823 279.223 134.506 278.15 133.955 277.2C133.418 276.251 132.55 275.48 131.406 275.356C130.276 275.219 129.118 275.521 127.988 275.769C126.858 276.017 125.769 276.265 124.722 276.485C122.682 276.925 120.822 277.31 119.182 277.668C117.597 277.998 116.315 278.246 115.433 278.398C114.537 278.549 114.041 278.618 114.041 278.576H113.986Z" fill="#E0E0E0"/>
<path d="M118.506 272.59C118.506 272.59 118.975 272.357 119.871 272.068C120.753 271.779 122.048 271.379 123.661 270.925C125.273 270.471 127.202 269.962 129.366 269.494C130.455 269.274 131.585 269.04 132.798 268.875C133.997 268.724 135.333 268.641 136.643 269.068C137.952 269.508 138.985 270.444 139.688 271.462C140.405 272.48 140.901 273.581 141.287 274.627C142.045 276.719 142.555 278.659 142.886 280.297C143.23 281.934 143.409 283.283 143.492 284.218C143.575 285.154 143.588 285.663 143.533 285.677C143.423 285.691 143.175 283.64 142.389 280.42C141.99 278.81 141.438 276.911 140.667 274.875C140.281 273.87 139.798 272.824 139.123 271.889C138.448 270.953 137.538 270.155 136.422 269.769C135.292 269.398 134.065 269.439 132.894 269.591C131.723 269.742 130.579 269.962 129.504 270.169C127.34 270.595 125.411 271.049 123.798 271.435C122.296 271.792 121.015 272.109 119.953 272.357C119.044 272.563 118.534 272.659 118.52 272.618L118.506 272.59Z" fill="#E0E0E0"/>
<path d="M107.619 275.824C107.481 275.7 108.763 274.338 110.885 273.581C112.994 272.797 114.854 273.003 114.841 273.182C114.841 273.389 113.104 273.512 111.133 274.256C109.163 274.971 107.757 275.989 107.619 275.838V275.824Z" fill="#E0E0E0"/>
<path d="M132.798 265.159C132.798 265.159 133.17 265.022 133.873 264.926C134.562 264.829 135.581 264.692 136.849 264.733C138.103 264.774 139.688 264.994 141.19 265.889C141.935 266.329 142.637 266.962 143.147 267.774C143.671 268.572 144.002 269.494 144.25 270.43C145.187 274.159 145.711 277.558 146 280.049C146.29 282.54 146.331 284.081 146.234 284.094C146.124 284.094 145.904 282.581 145.504 280.131C145.091 277.682 144.484 274.283 143.561 270.623C143.106 268.806 142.224 267.265 140.846 266.467C139.509 265.627 138.048 265.352 136.836 265.256C134.382 265.118 132.825 265.325 132.811 265.187L132.798 265.159Z" fill="#E0E0E0"/>
<path d="M119.113 268.765C119.058 268.572 120.519 268.022 122.365 267.54C124.212 267.058 125.755 266.811 125.811 267.003C125.866 267.196 124.405 267.747 122.558 268.228C120.711 268.71 119.168 268.957 119.113 268.765Z" fill="#E0E0E0"/>
<path d="M143.52 286.792C143.52 286.613 145.78 286.902 147.957 288.526C150.148 290.136 151.072 292.2 150.893 292.269C150.713 292.379 149.57 290.603 147.516 289.104C145.49 287.576 143.451 286.998 143.506 286.792H143.52Z" fill="#E0E0E0"/>
<path d="M147.654 282.595C147.764 282.374 149.404 283.503 151.664 283.42C153.897 283.31 155.661 282.429 155.757 282.663C155.84 282.773 154.2 283.998 151.692 284.136C150.451 284.177 149.349 283.792 148.66 283.406C147.957 283.007 147.626 282.663 147.668 282.581L147.654 282.595Z" fill="#E0E0E0"/>
<path d="M118.617 295.296C118.617 295.296 119.03 295.186 119.774 295.186C120.519 295.186 121.607 295.255 122.93 295.516C125.549 296.025 129.146 297.484 132.081 300.429C135.016 303.374 136.464 306.965 136.96 309.593C137.221 310.915 137.29 312.002 137.277 312.745C137.277 313.488 137.208 313.901 137.153 313.901C137.015 313.901 137.084 312.249 136.464 309.704C135.857 307.185 134.383 303.759 131.571 300.938C128.76 298.117 125.342 296.631 122.82 296.011C120.284 295.378 118.617 295.433 118.63 295.296H118.617Z" fill="#E0E0E0"/>
<path d="M114.248 323.671C114.276 323.437 118.245 324.166 123.013 323.244C127.795 322.364 131.227 320.245 131.337 320.451C131.378 320.52 130.593 321.153 129.146 321.91C127.712 322.666 125.59 323.492 123.151 323.96C120.698 324.414 118.424 324.414 116.811 324.235C115.199 324.056 114.234 323.767 114.248 323.685V323.671Z" fill="#E0E0E0"/>
<path d="M19.28 597.28C19.28 597.087 219.357 596.922 466.098 596.922C712.839 596.922 912.958 597.087 912.958 597.28C912.958 597.473 712.935 597.638 466.098 597.638C219.261 597.638 19.28 597.473 19.28 597.28Z" fill="#4E4879" fill-opacity="0.3"/>
<path d="M117.576 24.5676L120.387 30.2509C120.539 30.5536 120.828 30.7601 121.159 30.8151L127.443 31.7233C128.284 31.8472 128.615 32.8792 128.008 33.4572L123.461 37.8882C123.226 38.1222 123.116 38.4662 123.171 38.7964L124.246 45.0439C124.384 45.8833 123.516 46.5163 122.758 46.1173L117.135 43.1587C116.832 43.0073 116.487 43.0073 116.184 43.1587L110.561 46.1173C109.817 46.5163 108.935 45.8696 109.073 45.0439L110.148 38.7964C110.203 38.4662 110.093 38.1222 109.858 37.8882L105.311 33.4572C104.704 32.8655 105.035 31.8334 105.876 31.7233L112.16 30.8151C112.491 30.7601 112.78 30.5536 112.932 30.2509L115.743 24.5676C116.115 23.8108 117.204 23.8108 117.576 24.5676Z" fill="#9C60F3"/>
<path d="M45.7402 91.4L45.0373 94.9366C44.996 95.1292 45.0511 95.3219 45.1889 95.4595L47.7109 98.0465C48.0416 98.3906 47.8349 98.9685 47.3663 99.0236L43.7832 99.4501C43.5903 99.4777 43.4249 99.5878 43.3422 99.7529L41.6609 102.945C41.4404 103.372 40.8202 103.358 40.6135 102.918L39.0976 99.6428C39.0149 99.4639 38.8633 99.3401 38.6703 99.3125L35.1148 98.6933C34.6462 98.6107 34.467 98.019 34.8253 97.7025L37.4851 95.2531C37.623 95.1292 37.6919 94.9366 37.6643 94.7439L37.1544 91.1798C37.0855 90.6982 37.5954 90.3542 38.0088 90.5881L41.1648 92.3495C41.3301 92.4458 41.5369 92.4458 41.7022 92.3633L44.9408 90.767C45.3681 90.5606 45.8642 90.9321 45.7677 91.4H45.7402Z" fill="#9C60F3"/>
<path d="M184.856 93.5566L182.789 94.5336C182.679 94.5887 182.61 94.685 182.582 94.8089L182.224 97.0657C182.182 97.3684 181.81 97.4785 181.59 97.2583L180.019 95.607C179.936 95.5244 179.812 95.4831 179.688 95.4969L177.428 95.8547C177.125 95.896 176.904 95.5795 177.042 95.318L178.131 93.3089C178.186 93.1988 178.186 93.075 178.131 92.9649L177.097 90.9283C176.959 90.6531 177.194 90.3503 177.497 90.4054L179.743 90.8182C179.867 90.8457 179.977 90.8044 180.074 90.7219L181.686 89.1118C181.907 88.8917 182.265 89.0155 182.306 89.3183L182.61 91.575C182.623 91.6989 182.706 91.7952 182.803 91.8503L184.842 92.8823C185.118 93.0199 185.104 93.4053 184.842 93.5429L184.856 93.5566Z" fill="#9C60F3"/>
<path d="M30.1044 0.894388L29.4016 4.43095C29.3602 4.6236 29.4153 4.81626 29.5531 4.95387L32.0752 7.54092C32.4059 7.88495 32.1992 8.4629 31.7306 8.51795L28.1475 8.94454C27.9545 8.97206 27.7891 9.08215 27.7065 9.24728L26.0251 12.4398C25.8046 12.8664 25.1845 12.8526 24.9777 12.4123L23.4618 9.13719C23.3791 8.9583 23.2275 8.83445 23.0346 8.80693L19.479 8.18769C19.0104 8.10512 18.8313 7.5134 19.1896 7.1969L21.8494 4.74745C21.9872 4.6236 22.0561 4.43095 22.0286 4.2383L21.5187 0.674213C21.4497 0.19258 21.9597 -0.151443 22.3731 0.0824925L25.529 1.84389C25.6944 1.94022 25.9011 1.94022 26.0665 1.85765L29.3051 0.261385C29.7323 0.0549706 30.2285 0.426516 30.132 0.894388H30.1044Z" fill="#9C60F3"/>
<path d="M276.104 123.887L275.402 127.424C275.36 127.616 275.415 127.809 275.553 127.947L278.075 130.534C278.406 130.878 278.199 131.456 277.731 131.511L274.147 131.937C273.955 131.965 273.789 132.075 273.706 132.24L272.025 135.432C271.805 135.859 271.184 135.845 270.978 135.405L269.462 132.13C269.379 131.951 269.228 131.827 269.035 131.8L265.479 131.18C265.01 131.098 264.831 130.506 265.19 130.19L267.849 127.74C267.987 127.616 268.056 127.424 268.029 127.231L267.519 123.667C267.45 123.185 267.96 122.841 268.373 123.075L271.529 124.837C271.694 124.933 271.901 124.933 272.066 124.85L275.305 123.254C275.732 123.048 276.228 123.419 276.132 123.887H276.104Z" fill="#9C60F3"/>
<path d="M401.05 40.0581L398.983 41.0351C398.873 41.0902 398.804 41.1865 398.776 41.3103L398.418 43.5671C398.377 43.8699 398.005 43.98 397.784 43.7598L396.213 42.1085C396.13 42.0259 396.006 41.9846 395.896 41.9984L393.636 42.3562C393.333 42.3974 393.112 42.0809 393.25 41.8195L394.339 39.8104C394.394 39.7003 394.394 39.5765 394.339 39.4664L393.305 37.4297C393.167 37.1545 393.402 36.8518 393.705 36.9068L395.951 37.3197C396.075 37.3472 396.185 37.3059 396.282 37.2233L397.894 35.6133C398.115 35.3931 398.473 35.517 398.514 35.8197L398.818 38.0765C398.831 38.2004 398.914 38.2967 399.011 38.3517L401.05 39.3838C401.326 39.5214 401.312 39.9067 401.05 40.0443V40.0581Z" fill="#9C60F3"/>
<path d="M319.755 17.3403L318.693 22.6658C318.638 22.941 318.721 23.2438 318.928 23.4502L322.717 27.3445C323.227 27.8674 322.91 28.7344 322.194 28.8169L316.791 29.4499C316.502 29.4775 316.254 29.6564 316.116 29.9041L313.58 34.7066C313.236 35.3396 312.313 35.3259 312.009 34.6653L309.735 29.7389C309.611 29.4775 309.377 29.2986 309.088 29.2435L303.727 28.3216C303.01 28.1977 302.748 27.317 303.286 26.8216L307.282 23.1337C307.489 22.941 307.599 22.652 307.558 22.3631L306.786 16.9963C306.69 16.2807 307.448 15.7578 308.082 16.1156L312.822 18.7715C313.071 18.9091 313.374 18.9228 313.636 18.799L318.514 16.4046C319.162 16.0881 319.892 16.6523 319.755 17.3541V17.3403Z" fill="#9C60F3"/>
<path d="M209.277 229.714C209.277 229.714 209.111 229.246 208.808 228.366C208.505 227.457 208.064 226.164 207.485 224.457C206.328 221.017 204.619 215.953 202.414 209.375L202.744 209.43L202.717 209.458C202.648 209.541 202.538 209.554 202.455 209.486C202.386 209.43 202.372 209.334 202.4 209.252C205.597 201.945 208.395 191.679 207.361 179.542C207.099 176.514 206.617 173.404 205.831 170.239C204.894 167.116 204.04 163.854 202.579 160.689C199.85 154.318 195.854 148.015 190.479 142.456C185.132 136.91 178.42 132.121 170.689 128.805C162.985 125.489 154.275 123.645 145.29 123.837C127.347 124.044 108.425 133.25 97.0692 149.419C91.3224 157.634 87.4912 167.061 86.3611 176.652C85.1208 186.216 86.2095 195.807 89.1725 204.463C92.1079 213.146 97.083 220.756 103.023 226.852C108.99 232.975 115.991 237.572 123.212 240.585C130.434 243.613 137.876 245.071 144.877 245.291C145.759 245.291 146.627 245.319 147.495 245.319C148.363 245.347 149.218 245.347 150.058 245.236C151.753 245.085 153.421 244.934 155.061 244.796C158.286 244.149 161.428 243.695 164.336 242.759C176.078 239.237 184.567 232.893 190.066 227.347C190.107 227.306 190.162 227.292 190.217 227.292C196.364 228.063 201.104 228.654 204.329 229.054C205.928 229.26 207.141 229.411 207.995 229.521C208.822 229.632 209.263 229.7 209.263 229.7C209.263 229.7 208.877 229.673 208.064 229.59C207.223 229.508 206.011 229.37 204.439 229.205C201.173 228.847 196.377 228.324 190.162 227.65L190.314 227.595C184.829 233.223 176.312 239.677 164.487 243.296C161.552 244.259 158.382 244.727 155.13 245.388C153.476 245.539 151.795 245.691 150.086 245.856C149.232 245.966 148.363 245.966 147.495 245.952C146.627 245.952 145.745 245.938 144.849 245.924C137.765 245.732 130.241 244.287 122.923 241.246C115.605 238.218 108.508 233.581 102.458 227.388C96.4215 221.21 91.3637 213.504 88.387 204.71C85.3688 195.945 84.2526 186.23 85.5067 176.528C86.6505 166.799 90.5231 157.249 96.3526 148.91C97.0141 147.85 97.8272 146.901 98.6127 145.951L100.983 143.089L103.602 140.474C104.456 139.594 105.324 138.727 106.303 137.984C107.254 137.199 108.191 136.429 109.128 135.658C110.051 134.86 111.126 134.268 112.105 133.566C113.124 132.906 114.089 132.177 115.137 131.585C116.198 131.021 117.259 130.443 118.32 129.878C126.837 125.461 136.167 123.149 145.276 123.012C154.386 122.833 163.206 124.704 171.006 128.09C178.82 131.461 185.6 136.319 191.003 141.961C196.419 147.589 200.443 153.988 203.185 160.442C204.66 163.634 205.514 166.937 206.438 170.102C207.21 173.294 207.692 176.459 207.94 179.5C208.932 191.775 206.038 202.096 202.758 209.417L202.441 209.224L202.469 209.197C202.538 209.114 202.648 209.1 202.731 209.169C202.758 209.197 202.786 209.224 202.8 209.265C204.936 215.926 206.576 221.058 207.692 224.554C208.229 226.246 208.643 227.54 208.918 228.434C209.194 229.301 209.304 229.728 209.304 229.728L209.277 229.714Z" fill="#4E4879" fill-opacity="0.3"/>
<path d="M117.548 186.876L125.087 178.812L140.604 191.665L169.201 162.258L176.725 169.799L140.012 206.747L117.548 186.876Z" fill="#9C60F3"/>
</svg>
