<svg width="24" height="24" viewBox="0 0 24 24" fill="none" xmlns="http://www.w3.org/2000/svg">
<path d="M12 2C17.522 2 22 6.478 22 12C22 17.522 17.522 22 12 22C6.478 22 2 17.522 2 12C2 6.478 6.478 2 12 2Z" fill="#1DA1F2"/>
<path d="M9.67991 17.08C14.3959 17.08 16.9779 13.172 16.9779 9.78198C16.9779 9.67198 16.9779 9.55998 16.9699 9.44998C17.4719 9.08598 17.9059 8.63798 18.2499 8.12198C17.7819 8.32998 17.2859 8.46598 16.7779 8.52598C17.3139 8.20598 17.7139 7.70198 17.9059 7.10798C17.4019 7.40598 16.8519 7.61798 16.2779 7.72998C15.3059 6.69798 13.6819 6.64798 12.6499 7.61798C11.9839 8.24398 11.7019 9.17798 11.9079 10.068C9.84591 9.96398 7.92391 8.98998 6.62191 7.38798C5.94191 8.55998 6.28791 10.058 7.41591 10.812C7.00791 10.8 6.60791 10.69 6.25191 10.492C6.25191 10.502 6.25191 10.514 6.25191 10.524C6.25191 11.744 7.11191 12.796 8.30991 13.038C7.93191 13.14 7.53591 13.156 7.15191 13.082C7.48791 14.126 8.44991 14.842 9.54791 14.864C8.63991 15.578 7.51791 15.966 6.36391 15.964C6.15991 15.964 5.95591 15.952 5.75391 15.926C6.92191 16.68 8.28791 17.08 9.67991 17.078" fill="white"/>
</svg>
