<svg width="124" height="35" viewBox="0 0 124 35" fill="none" xmlns="http://www.w3.org/2000/svg">
<rect width="124" height="35" rx="4" fill="#4E4879"/>
<g clip-path="url(#clip0_1940_6736)">
<mask id="mask0_1940_6736" style="mask-type:luminance" maskUnits="userSpaceOnUse" x="10" y="5" width="20" height="25">
<path d="M29.786 5.5H10.25V29.5H29.786V5.5Z" fill="white"/>
</mask>
<g mask="url(#mask0_1940_6736)">
<path d="M29.1644 13.6816C29.0251 13.7896 26.5676 15.1744 26.5676 18.2536C26.5676 21.8152 29.6949 23.0752 29.7884 23.1064C29.774 23.1832 29.2916 24.832 28.1396 26.512C27.1124 27.9904 26.0396 29.4664 24.4076 29.4664C22.7756 29.4664 22.3556 28.5184 20.4716 28.5184C18.6356 28.5184 17.9828 29.4976 16.49 29.4976C14.9972 29.4976 13.9556 28.1296 12.758 26.4496C11.3708 24.4769 10.25 21.412 10.25 18.5032C10.25 13.8376 13.2836 11.3632 16.2692 11.3632C17.8556 11.3632 19.178 12.4048 20.174 12.4048C21.122 12.4048 22.6004 11.3008 24.4052 11.3008C25.0892 11.3008 27.5468 11.3632 29.1644 13.6816ZM23.5484 9.3256C24.2948 8.44 24.8228 7.2112 24.8228 5.9824C24.8228 5.812 24.8084 5.6392 24.7772 5.5C23.5628 5.5456 22.118 6.3088 21.2468 7.3192C20.5628 8.0968 19.9244 9.3256 19.9244 10.5712C19.9244 10.7584 19.9556 10.9456 19.97 11.0056C20.0468 11.02 20.1716 11.0368 20.2964 11.0368C21.386 11.0368 22.7564 10.3072 23.5484 9.3256Z" fill="white"/>
</g>
</g>
<path d="M40.16 13L42.144 7.24H42.924L44.908 13H44.296L42.412 7.568H42.644L40.772 13H40.16ZM41.044 11.604V11.052H44.02V11.604H41.044ZM46.478 13L44.91 8.68H45.506L46.782 12.232L48.05 8.68H48.654L47.086 13H46.478ZM50.3663 13.12C50.041 13.12 49.7676 13.0613 49.5463 12.944C49.3276 12.8267 49.1636 12.6707 49.0543 12.476C48.945 12.2813 48.8903 12.0693 48.8903 11.84C48.8903 11.6053 48.937 11.4053 49.0303 11.24C49.1263 11.072 49.2556 10.9347 49.4183 10.828C49.5836 10.7213 49.7743 10.64 49.9903 10.584C50.209 10.5307 50.4503 10.484 50.7143 10.444C50.981 10.4013 51.241 10.3653 51.4943 10.336C51.7503 10.304 51.9743 10.2733 52.1663 10.244L51.9583 10.372C51.9663 9.94533 51.8836 9.62933 51.7103 9.424C51.537 9.21867 51.2356 9.116 50.8063 9.116C50.5103 9.116 50.2596 9.18267 50.0543 9.316C49.8516 9.44933 49.709 9.66 49.6263 9.948L49.0543 9.78C49.153 9.39333 49.3516 9.09333 49.6503 8.88C49.949 8.66667 50.337 8.56 50.8143 8.56C51.209 8.56 51.5436 8.63467 51.8183 8.784C52.0956 8.93067 52.2916 9.144 52.4063 9.424C52.4596 9.54933 52.4943 9.68933 52.5103 9.844C52.5263 9.99867 52.5343 10.156 52.5343 10.316V13H52.0103V11.916L52.1623 11.98C52.0156 12.3507 51.7876 12.6333 51.4783 12.828C51.169 13.0227 50.7983 13.12 50.3663 13.12ZM50.4343 12.612C50.709 12.612 50.949 12.5627 51.1543 12.464C51.3596 12.3653 51.525 12.2307 51.6503 12.06C51.7756 11.8867 51.857 11.692 51.8943 11.476C51.9263 11.3373 51.9436 11.1853 51.9463 11.02C51.949 10.852 51.9503 10.7267 51.9503 10.644L52.1743 10.76C51.9743 10.7867 51.757 10.8133 51.5223 10.84C51.2903 10.8667 51.061 10.8973 50.8343 10.932C50.6103 10.9667 50.4076 11.008 50.2263 11.056C50.1036 11.0907 49.985 11.14 49.8703 11.204C49.7556 11.2653 49.661 11.348 49.5863 11.452C49.5143 11.556 49.4783 11.6853 49.4783 11.84C49.4783 11.9653 49.509 12.0867 49.5703 12.204C49.6343 12.3213 49.7356 12.4187 49.8743 12.496C50.0156 12.5733 50.2023 12.612 50.4343 12.612ZM53.6556 7.86V7.2H54.2436V7.86H53.6556ZM53.6556 13V8.68H54.2436V13H53.6556ZM55.5228 13V7.12H56.1108V13H55.5228ZM58.546 13.12C58.2207 13.12 57.9473 13.0613 57.726 12.944C57.5073 12.8267 57.3433 12.6707 57.234 12.476C57.1247 12.2813 57.07 12.0693 57.07 11.84C57.07 11.6053 57.1167 11.4053 57.21 11.24C57.306 11.072 57.4353 10.9347 57.598 10.828C57.7633 10.7213 57.954 10.64 58.17 10.584C58.3887 10.5307 58.63 10.484 58.894 10.444C59.1607 10.4013 59.4207 10.3653 59.674 10.336C59.93 10.304 60.154 10.2733 60.346 10.244L60.138 10.372C60.146 9.94533 60.0633 9.62933 59.89 9.424C59.7167 9.21867 59.4153 9.116 58.986 9.116C58.69 9.116 58.4393 9.18267 58.234 9.316C58.0313 9.44933 57.8887 9.66 57.806 9.948L57.234 9.78C57.3327 9.39333 57.5313 9.09333 57.83 8.88C58.1287 8.66667 58.5167 8.56 58.994 8.56C59.3887 8.56 59.7233 8.63467 59.998 8.784C60.2753 8.93067 60.4713 9.144 60.586 9.424C60.6393 9.54933 60.674 9.68933 60.69 9.844C60.706 9.99867 60.714 10.156 60.714 10.316V13H60.19V11.916L60.342 11.98C60.1953 12.3507 59.9673 12.6333 59.658 12.828C59.3487 13.0227 58.978 13.12 58.546 13.12ZM58.614 12.612C58.8887 12.612 59.1287 12.5627 59.334 12.464C59.5393 12.3653 59.7047 12.2307 59.83 12.06C59.9553 11.8867 60.0367 11.692 60.074 11.476C60.106 11.3373 60.1233 11.1853 60.126 11.02C60.1287 10.852 60.13 10.7267 60.13 10.644L60.354 10.76C60.154 10.7867 59.9367 10.8133 59.702 10.84C59.47 10.8667 59.2407 10.8973 59.014 10.932C58.79 10.9667 58.5873 11.008 58.406 11.056C58.2833 11.0907 58.1647 11.14 58.05 11.204C57.9353 11.2653 57.8407 11.348 57.766 11.452C57.694 11.556 57.658 11.6853 57.658 11.84C57.658 11.9653 57.6887 12.0867 57.75 12.204C57.814 12.3213 57.9153 12.4187 58.054 12.496C58.1953 12.5733 58.382 12.612 58.614 12.612ZM63.6953 13.12C63.298 13.12 62.962 13.02 62.6873 12.82C62.4126 12.6173 62.2046 12.344 62.0633 12C61.922 11.6533 61.8513 11.2653 61.8513 10.836C61.8513 10.3987 61.922 10.0093 62.0633 9.668C62.2073 9.324 62.418 9.05333 62.6953 8.856C62.9726 8.65867 63.314 8.56 63.7193 8.56C64.114 8.56 64.4526 8.66 64.7353 8.86C65.018 9.06 65.234 9.332 65.3833 9.676C65.5353 10.02 65.6113 10.4067 65.6113 10.836C65.6113 11.268 65.5353 11.656 65.3833 12C65.2313 12.344 65.0126 12.6173 64.7273 12.82C64.442 13.02 64.098 13.12 63.6953 13.12ZM61.7513 13V7.24H62.3433V9.748H62.2793V13H61.7513ZM63.6353 12.572C63.9366 12.572 64.1873 12.496 64.3873 12.344C64.5873 12.192 64.7366 11.9853 64.8353 11.724C64.9366 11.46 64.9873 11.164 64.9873 10.836C64.9873 10.5107 64.938 10.2173 64.8393 9.956C64.7406 9.69467 64.59 9.488 64.3873 9.336C64.1873 9.184 63.9326 9.108 63.6233 9.108C63.322 9.108 63.0713 9.18133 62.8713 9.328C62.674 9.47467 62.526 9.67867 62.4273 9.94C62.3286 10.1987 62.2793 10.4973 62.2793 10.836C62.2793 11.1693 62.3286 11.468 62.4273 11.732C62.526 11.9933 62.6753 12.1987 62.8753 12.348C63.0753 12.4973 63.3286 12.572 63.6353 12.572ZM66.5697 13V7.12H67.1577V13H66.5697ZM70.1849 13.12C69.7635 13.12 69.3982 13.0267 69.0889 12.84C68.7822 12.6533 68.5435 12.3907 68.3729 12.052C68.2022 11.7133 68.1169 11.316 68.1169 10.86C68.1169 10.388 68.2009 9.98 68.3689 9.636C68.5369 9.292 68.7729 9.02667 69.0769 8.84C69.3835 8.65333 69.7449 8.56 70.1609 8.56C70.5875 8.56 70.9515 8.65867 71.2529 8.856C71.5542 9.05067 71.7822 9.33067 71.9369 9.696C72.0915 10.0613 72.1622 10.4973 72.1489 11.004H71.5489V10.796C71.5382 10.236 71.4169 9.81333 71.1849 9.528C70.9555 9.24267 70.6195 9.1 70.1769 9.1C69.7129 9.1 69.3569 9.25067 69.1089 9.552C68.8635 9.85333 68.7409 10.2827 68.7409 10.84C68.7409 11.384 68.8635 11.8067 69.1089 12.108C69.3569 12.4067 69.7075 12.556 70.1609 12.556C70.4702 12.556 70.7395 12.4853 70.9689 12.344C71.2009 12.2 71.3835 11.9933 71.5169 11.724L72.0649 11.936C71.8942 12.312 71.6422 12.604 71.3089 12.812C70.9782 13.0173 70.6035 13.12 70.1849 13.12ZM68.5329 11.004V10.512H71.8329V11.004H68.5329ZM76.4421 13.12C76.0128 13.12 75.6461 13.0227 75.3421 12.828C75.0381 12.6333 74.8048 12.364 74.6421 12.02C74.4795 11.676 74.3981 11.2813 74.3981 10.836C74.3981 10.3827 74.4808 9.98533 74.6461 9.644C74.8115 9.30267 75.0461 9.03733 75.3501 8.848C75.6568 8.656 76.0208 8.56 76.4421 8.56C76.8741 8.56 77.2421 8.65733 77.5461 8.852C77.8528 9.044 78.0861 9.312 78.2461 9.656C78.4088 9.99733 78.4901 10.3907 78.4901 10.836C78.4901 11.2893 78.4088 11.688 78.2461 12.032C78.0835 12.3733 77.8488 12.64 77.5421 12.832C77.2355 13.024 76.8688 13.12 76.4421 13.12ZM76.4421 12.556C76.9221 12.556 77.2795 12.3973 77.5141 12.08C77.7488 11.76 77.8661 11.3453 77.8661 10.836C77.8661 10.3133 77.7475 9.89733 77.5101 9.588C77.2755 9.27867 76.9195 9.124 76.4421 9.124C76.1195 9.124 75.8528 9.19733 75.6421 9.344C75.4341 9.488 75.2781 9.68933 75.1741 9.948C75.0728 10.204 75.0221 10.5 75.0221 10.836C75.0221 11.356 75.1421 11.7733 75.3821 12.088C75.6221 12.4 75.9755 12.556 76.4421 12.556ZM82.4925 13V10.796C82.4925 10.556 82.4698 10.336 82.4245 10.136C82.3792 9.93333 82.3058 9.75733 82.2045 9.608C82.1058 9.456 81.9765 9.33867 81.8165 9.256C81.6592 9.17333 81.4672 9.132 81.2405 9.132C81.0325 9.132 80.8485 9.168 80.6885 9.24C80.5312 9.312 80.3978 9.416 80.2885 9.552C80.1818 9.68533 80.1005 9.848 80.0445 10.04C79.9885 10.232 79.9605 10.4507 79.9605 10.696L79.5445 10.604C79.5445 10.1613 79.6218 9.78933 79.7765 9.488C79.9312 9.18667 80.1445 8.95867 80.4165 8.804C80.6885 8.64933 81.0005 8.572 81.3525 8.572C81.6112 8.572 81.8365 8.612 82.0285 8.692C82.2232 8.772 82.3872 8.88 82.5205 9.016C82.6565 9.152 82.7658 9.308 82.8485 9.484C82.9312 9.65733 82.9912 9.84267 83.0285 10.04C83.0658 10.2347 83.0845 10.4293 83.0845 10.624V13H82.4925ZM79.3685 13V8.68H79.9005V9.744H79.9605V13H79.3685ZM88.0761 13C87.8334 13.0507 87.5934 13.0707 87.3561 13.06C87.1214 13.0493 86.9107 12.9987 86.7241 12.908C86.5401 12.8173 86.4001 12.676 86.3041 12.484C86.2267 12.324 86.1841 12.1627 86.1761 12C86.1707 11.8347 86.1681 11.6467 86.1681 11.436V7.48H86.7521V11.412C86.7521 11.5933 86.7534 11.7453 86.7561 11.868C86.7614 11.988 86.7894 12.0947 86.8401 12.188C86.9361 12.3667 87.0881 12.4733 87.2961 12.508C87.5067 12.5427 87.7667 12.5347 88.0761 12.484V13ZM85.2441 9.184V8.68H88.0761V9.184H85.2441ZM92.0472 13V10.796C92.0472 10.556 92.0245 10.336 91.9792 10.136C91.9339 9.93333 91.8605 9.75733 91.7592 9.608C91.6605 9.456 91.5312 9.33867 91.3712 9.256C91.2139 9.17333 91.0219 9.132 90.7952 9.132C90.5872 9.132 90.4032 9.168 90.2432 9.24C90.0859 9.312 89.9525 9.416 89.8432 9.552C89.7365 9.68533 89.6552 9.848 89.5992 10.04C89.5432 10.232 89.5152 10.4507 89.5152 10.696L89.0992 10.604C89.0992 10.1613 89.1765 9.78933 89.3312 9.488C89.4859 9.18667 89.6992 8.95867 89.9712 8.804C90.2432 8.64933 90.5552 8.572 90.9072 8.572C91.1659 8.572 91.3912 8.612 91.5832 8.692C91.7779 8.772 91.9419 8.88 92.0752 9.016C92.2112 9.152 92.3205 9.308 92.4032 9.484C92.4859 9.65733 92.5459 9.84267 92.5832 10.04C92.6205 10.2347 92.6392 10.4293 92.6392 10.624V13H92.0472ZM88.9232 13V7.24H89.4552V10.492H89.5152V13H88.9232ZM95.5052 13.12C95.0839 13.12 94.7185 13.0267 94.4092 12.84C94.1025 12.6533 93.8639 12.3907 93.6932 12.052C93.5225 11.7133 93.4372 11.316 93.4372 10.86C93.4372 10.388 93.5212 9.98 93.6892 9.636C93.8572 9.292 94.0932 9.02667 94.3972 8.84C94.7039 8.65333 95.0652 8.56 95.4812 8.56C95.9079 8.56 96.2719 8.65867 96.5732 8.856C96.8745 9.05067 97.1025 9.33067 97.2572 9.696C97.4119 10.0613 97.4825 10.4973 97.4692 11.004H96.8692V10.796C96.8585 10.236 96.7372 9.81333 96.5052 9.528C96.2759 9.24267 95.9399 9.1 95.4972 9.1C95.0332 9.1 94.6772 9.25067 94.4292 9.552C94.1839 9.85333 94.0612 10.2827 94.0612 10.84C94.0612 11.384 94.1839 11.8067 94.4292 12.108C94.6772 12.4067 95.0279 12.556 95.4812 12.556C95.7905 12.556 96.0599 12.4853 96.2892 12.344C96.5212 12.2 96.7039 11.9933 96.8372 11.724L97.3852 11.936C97.2145 12.312 96.9625 12.604 96.6292 12.812C96.2985 13.0173 95.9239 13.12 95.5052 13.12ZM93.8532 11.004V10.512H97.1532V11.004H93.8532Z" fill="white"/>
<path d="M40.24 28L42.964 19.36H45.082L47.806 28H46.318L43.846 20.248H44.17L41.728 28H40.24ZM41.758 26.128V24.778H46.294V26.128H41.758ZM52.0048 28.18C51.3728 28.18 50.8428 28.03 50.4148 27.73C49.9868 27.43 49.6648 27.022 49.4488 26.506C49.2328 25.986 49.1248 25.404 49.1248 24.76C49.1248 24.108 49.2328 23.524 49.4488 23.008C49.6648 22.492 49.9808 22.086 50.3968 21.79C50.8168 21.49 51.3348 21.34 51.9508 21.34C52.5628 21.34 53.0928 21.49 53.5408 21.79C53.9928 22.086 54.3428 22.492 54.5908 23.008C54.8388 23.52 54.9628 24.104 54.9628 24.76C54.9628 25.408 54.8408 25.99 54.5968 26.506C54.3528 27.022 54.0088 27.43 53.5648 27.73C53.1208 28.03 52.6008 28.18 52.0048 28.18ZM48.8788 30.88V21.52H50.1568V26.068H50.3368V30.88H48.8788ZM51.7828 26.884C52.1588 26.884 52.4688 26.79 52.7128 26.602C52.9568 26.414 53.1368 26.16 53.2528 25.84C53.3728 25.516 53.4328 25.156 53.4328 24.76C53.4328 24.368 53.3728 24.012 53.2528 23.692C53.1328 23.368 52.9468 23.112 52.6948 22.924C52.4428 22.732 52.1228 22.636 51.7348 22.636C51.3668 22.636 51.0668 22.726 50.8348 22.906C50.6028 23.082 50.4308 23.33 50.3188 23.65C50.2108 23.966 50.1568 24.336 50.1568 24.76C50.1568 25.18 50.2108 25.55 50.3188 25.87C50.4308 26.19 50.6048 26.44 50.8408 26.62C51.0808 26.796 51.3948 26.884 51.7828 26.884ZM59.3993 28.18C58.7673 28.18 58.2373 28.03 57.8093 27.73C57.3813 27.43 57.0593 27.022 56.8433 26.506C56.6273 25.986 56.5193 25.404 56.5193 24.76C56.5193 24.108 56.6273 23.524 56.8433 23.008C57.0593 22.492 57.3753 22.086 57.7913 21.79C58.2113 21.49 58.7293 21.34 59.3453 21.34C59.9573 21.34 60.4873 21.49 60.9353 21.79C61.3873 22.086 61.7373 22.492 61.9853 23.008C62.2333 23.52 62.3573 24.104 62.3573 24.76C62.3573 25.408 62.2353 25.99 61.9913 26.506C61.7473 27.022 61.4033 27.43 60.9593 27.73C60.5153 28.03 59.9953 28.18 59.3993 28.18ZM56.2733 30.88V21.52H57.5513V26.068H57.7313V30.88H56.2733ZM59.1773 26.884C59.5533 26.884 59.8633 26.79 60.1073 26.602C60.3513 26.414 60.5313 26.16 60.6473 25.84C60.7673 25.516 60.8273 25.156 60.8273 24.76C60.8273 24.368 60.7673 24.012 60.6473 23.692C60.5273 23.368 60.3413 23.112 60.0893 22.924C59.8373 22.732 59.5173 22.636 59.1293 22.636C58.7613 22.636 58.4613 22.726 58.2293 22.906C57.9973 23.082 57.8253 23.33 57.7133 23.65C57.6053 23.966 57.5513 24.336 57.5513 24.76C57.5513 25.18 57.6053 25.55 57.7133 25.87C57.8253 26.19 57.9993 26.44 58.2353 26.62C58.4753 26.796 58.7893 26.884 59.1773 26.884ZM68.5842 28.18C67.7842 28.18 67.1342 28 66.6342 27.64C66.1342 27.28 65.8302 26.774 65.7222 26.122L67.1982 25.894C67.2742 26.214 67.4422 26.466 67.7022 26.65C67.9622 26.834 68.2902 26.926 68.6862 26.926C69.0342 26.926 69.3022 26.858 69.4902 26.722C69.6822 26.582 69.7782 26.392 69.7782 26.152C69.7782 26.004 69.7422 25.886 69.6702 25.798C69.6022 25.706 69.4502 25.618 69.2142 25.534C68.9782 25.45 68.6162 25.344 68.1282 25.216C67.5842 25.072 67.1522 24.918 66.8322 24.754C66.5122 24.586 66.2822 24.388 66.1422 24.16C66.0022 23.932 65.9322 23.656 65.9322 23.332C65.9322 22.928 66.0382 22.576 66.2502 22.276C66.4622 21.976 66.7582 21.746 67.1382 21.586C67.5182 21.422 67.9662 21.34 68.4822 21.34C68.9862 21.34 69.4322 21.418 69.8202 21.574C70.2122 21.73 70.5282 21.952 70.7682 22.24C71.0082 22.528 71.1562 22.866 71.2122 23.254L69.7362 23.518C69.7002 23.242 69.5742 23.024 69.3582 22.864C69.1462 22.704 68.8622 22.614 68.5062 22.594C68.1662 22.574 67.8922 22.626 67.6842 22.75C67.4762 22.87 67.3722 23.04 67.3722 23.26C67.3722 23.384 67.4142 23.49 67.4982 23.578C67.5822 23.666 67.7502 23.754 68.0022 23.842C68.2582 23.93 68.6382 24.038 69.1422 24.166C69.6582 24.298 70.0702 24.45 70.3782 24.622C70.6902 24.79 70.9142 24.992 71.0502 25.228C71.1902 25.464 71.2602 25.75 71.2602 26.086C71.2602 26.738 71.0222 27.25 70.5462 27.622C70.0742 27.994 69.4202 28.18 68.5842 28.18ZM76.3724 28C75.9444 28.08 75.5244 28.114 75.1124 28.102C74.7044 28.094 74.3384 28.02 74.0144 27.88C73.6904 27.736 73.4444 27.51 73.2764 27.202C73.1284 26.922 73.0504 26.636 73.0424 26.344C73.0344 26.052 73.0304 25.722 73.0304 25.354V19.72H74.4704V25.27C74.4704 25.53 74.4724 25.758 74.4764 25.954C74.4844 26.15 74.5264 26.31 74.6024 26.434C74.7464 26.674 74.9764 26.808 75.2924 26.836C75.6084 26.864 75.9684 26.848 76.3724 26.788V28ZM71.8544 22.654V21.52H76.3724V22.654H71.8544ZM80.2997 28.18C79.6517 28.18 79.0857 28.034 78.6017 27.742C78.1177 27.45 77.7417 27.048 77.4737 26.536C77.2097 26.02 77.0777 25.428 77.0777 24.76C77.0777 24.08 77.2137 23.484 77.4857 22.972C77.7577 22.46 78.1357 22.06 78.6197 21.772C79.1037 21.484 79.6637 21.34 80.2997 21.34C80.9517 21.34 81.5197 21.486 82.0037 21.778C82.4877 22.07 82.8637 22.474 83.1317 22.99C83.3997 23.502 83.5337 24.092 83.5337 24.76C83.5337 25.432 83.3977 26.026 83.1257 26.542C82.8577 27.054 82.4817 27.456 81.9977 27.748C81.5137 28.036 80.9477 28.18 80.2997 28.18ZM80.2997 26.824C80.8757 26.824 81.3037 26.632 81.5837 26.248C81.8637 25.864 82.0037 25.368 82.0037 24.76C82.0037 24.132 81.8617 23.632 81.5777 23.26C81.2937 22.884 80.8677 22.696 80.2997 22.696C79.9117 22.696 79.5917 22.784 79.3397 22.96C79.0917 23.132 78.9077 23.374 78.7877 23.686C78.6677 23.994 78.6077 24.352 78.6077 24.76C78.6077 25.388 78.7497 25.89 79.0337 26.266C79.3217 26.638 79.7437 26.824 80.2997 26.824ZM84.8556 28V21.52H86.1336V23.098L85.9776 22.894C86.0576 22.678 86.1636 22.482 86.2956 22.306C86.4316 22.126 86.5936 21.978 86.7816 21.862C86.9416 21.754 87.1176 21.67 87.3096 21.61C87.5056 21.546 87.7056 21.508 87.9096 21.496C88.1136 21.48 88.3116 21.488 88.5036 21.52V22.87C88.3116 22.814 88.0896 22.796 87.8376 22.816C87.5896 22.836 87.3656 22.906 87.1656 23.026C86.9656 23.134 86.8016 23.272 86.6736 23.44C86.5496 23.608 86.4576 23.8 86.3976 24.016C86.3376 24.228 86.3076 24.458 86.3076 24.706V28H84.8556ZM92.4774 28.18C91.8214 28.18 91.2454 28.038 90.7494 27.754C90.2534 27.47 89.8654 27.076 89.5854 26.572C89.3094 26.068 89.1714 25.488 89.1714 24.832C89.1714 24.124 89.3074 23.51 89.5794 22.99C89.8514 22.466 90.2294 22.06 90.7134 21.772C91.1974 21.484 91.7574 21.34 92.3934 21.34C93.0654 21.34 93.6354 21.498 94.1034 21.814C94.5754 22.126 94.9254 22.568 95.1534 23.14C95.3814 23.712 95.4674 24.386 95.4114 25.162H93.9774V24.634C93.9734 23.93 93.8494 23.416 93.6054 23.092C93.3614 22.768 92.9774 22.606 92.4534 22.606C91.8614 22.606 91.4214 22.79 91.1334 23.158C90.8454 23.522 90.7014 24.056 90.7014 24.76C90.7014 25.416 90.8454 25.924 91.1334 26.284C91.4214 26.644 91.8414 26.824 92.3934 26.824C92.7494 26.824 93.0554 26.746 93.3114 26.59C93.5714 26.43 93.7714 26.2 93.9114 25.9L95.3394 26.332C95.0914 26.916 94.7074 27.37 94.1874 27.694C93.6714 28.018 93.1014 28.18 92.4774 28.18ZM90.2454 25.162V24.07H94.7034V25.162H90.2454Z" fill="white"/>
<defs>
<clipPath id="clip0_1940_6736">
<rect width="24" height="24" fill="white" transform="translate(8 5.5)"/>
</clipPath>
</defs>
</svg>
