<svg width="124" height="35" viewBox="0 0 124 35" fill="none" xmlns="http://www.w3.org/2000/svg">
<rect width="124" height="35" rx="4" fill="#4E4879"/>
<g clip-path="url(#clip0_1940_6727)">
<path fill-rule="evenodd" clip-rule="evenodd" d="M9.73882 5.86349C9.46859 6.15437 9.3125 6.59884 9.3125 7.18061V27.8147C9.3125 28.3966 9.46858 28.8409 9.74814 29.1203L9.82036 29.1831L21.394 17.6222V17.3639L9.81104 5.80066L9.73882 5.86349Z" fill="url(#paint0_linear_1940_6727)"/>
<path fill-rule="evenodd" clip-rule="evenodd" d="M25.245 21.4875L21.3848 17.6315V17.3616L25.245 13.5056L25.3288 13.5568L29.8949 16.1492C31.2017 16.8845 31.2017 18.0993 29.8949 18.8439L25.3288 21.4363L25.245 21.4875Z" fill="url(#paint1_linear_1940_6727)"/>
<path fill-rule="evenodd" clip-rule="evenodd" d="M25.3287 21.4362L21.3846 17.4965L9.73877 29.1295C10.1651 29.5857 10.8803 29.6369 11.6794 29.1923L25.3287 21.4362Z" fill="url(#paint2_linear_1940_6727)"/>
<path fill-rule="evenodd" clip-rule="evenodd" d="M25.3287 13.5568L11.6794 5.81228C10.8803 5.35618 10.1628 5.41901 9.73877 5.87511L21.3846 17.4965L25.3287 13.5568Z" fill="url(#paint3_linear_1940_6727)"/>
</g>
<path d="M42.868 13.12C42.4627 13.12 42.0973 13.0493 41.772 12.908C41.4467 12.7667 41.1693 12.5653 40.94 12.304C40.7133 12.0427 40.54 11.728 40.42 11.36C40.3 10.9893 40.24 10.576 40.24 10.12C40.24 9.51733 40.344 8.992 40.552 8.544C40.7627 8.09333 41.064 7.744 41.456 7.496C41.848 7.248 42.3187 7.124 42.868 7.124C43.4813 7.124 43.98 7.268 44.364 7.556C44.7507 7.84133 45.02 8.22533 45.172 8.708L44.58 8.852C44.4547 8.5 44.248 8.21867 43.96 8.008C43.6747 7.79733 43.3187 7.692 42.892 7.692C42.4413 7.68933 42.0667 7.79067 41.768 7.996C41.4693 8.19867 41.244 8.484 41.092 8.852C40.9427 9.21733 40.8667 9.64 40.864 10.12C40.8613 10.6 40.9347 11.0227 41.084 11.388C41.236 11.7507 41.4627 12.036 41.764 12.244C42.0653 12.4493 42.4413 12.5533 42.892 12.556C43.3053 12.556 43.6467 12.476 43.916 12.316C44.1853 12.156 44.3893 11.9267 44.528 11.628C44.6693 11.3293 44.7493 10.976 44.768 10.568H43.44V10.064H45.384C45.392 10.1253 45.396 10.1907 45.396 10.26C45.3987 10.3267 45.4 10.3747 45.4 10.404C45.4 10.924 45.3067 11.3893 45.12 11.8C44.9333 12.208 44.652 12.5307 44.276 12.768C43.9027 13.0027 43.4333 13.12 42.868 13.12ZM46.2006 13V7.24H49.8006V7.804H46.7886V9.796H49.3206V10.36H46.7886V12.436H49.8006V13H46.2006ZM52.2951 13V7.804H50.2831V7.24H54.8951V7.804H52.8831V13H52.2951ZM56.9759 13V7.24H57.5639V13H56.9759ZM60.2951 13V7.804H58.2831V7.24H62.8951V7.804H60.8831V13H60.2951ZM67.2279 13.12C66.6546 13.12 66.1706 12.9933 65.7759 12.74C65.3813 12.484 65.0826 12.1307 64.8799 11.68C64.6773 11.2293 64.5759 10.7093 64.5759 10.12C64.5759 9.53067 64.6773 9.01067 64.8799 8.56C65.0826 8.10933 65.3813 7.75733 65.7759 7.504C66.1706 7.248 66.6546 7.12 67.2279 7.12C67.8039 7.12 68.2879 7.248 68.6799 7.504C69.0746 7.75733 69.3733 8.10933 69.5759 8.56C69.7813 9.01067 69.8839 9.53067 69.8839 10.12C69.8839 10.7093 69.7813 11.2293 69.5759 11.68C69.3733 12.1307 69.0746 12.484 68.6799 12.74C68.2879 12.9933 67.8039 13.12 67.2279 13.12ZM67.2279 12.556C67.6786 12.556 68.0546 12.4533 68.3559 12.248C68.6573 12.0427 68.8826 11.7573 69.0319 11.392C69.1839 11.024 69.2599 10.6 69.2599 10.12C69.2599 9.64 69.1839 9.21733 69.0319 8.852C68.8826 8.48667 68.6573 8.20133 68.3559 7.996C68.0546 7.79067 67.6786 7.68667 67.2279 7.684C66.7773 7.684 66.4026 7.78667 66.1039 7.992C65.8053 8.19733 65.5799 8.484 65.4279 8.852C65.2786 9.21733 65.2026 9.64 65.1999 10.12C65.1973 10.6 65.2706 11.0227 65.4199 11.388C65.5719 11.7507 65.7986 12.036 66.0999 12.244C66.4013 12.4493 66.7773 12.5533 67.2279 12.556ZM70.685 13V7.24H71.277L74.449 11.96V7.24H75.041V13H74.449L71.277 8.276V13H70.685Z" fill="white"/>
<path d="M44.404 28.18C43.844 28.18 43.318 28.082 42.826 27.886C42.338 27.686 41.908 27.394 41.536 27.01C41.168 26.626 40.88 26.156 40.672 25.6C40.464 25.04 40.36 24.4 40.36 23.68C40.36 22.736 40.536 21.93 40.888 21.262C41.24 20.59 41.722 20.076 42.334 19.72C42.946 19.36 43.636 19.18 44.404 19.18C45.468 19.18 46.31 19.428 46.93 19.924C47.554 20.416 47.976 21.108 48.196 22L46.72 22.234C46.556 21.722 46.288 21.314 45.916 21.01C45.544 20.702 45.07 20.548 44.494 20.548C43.914 20.54 43.432 20.666 43.048 20.926C42.664 21.186 42.374 21.552 42.178 22.024C41.986 22.496 41.89 23.048 41.89 23.68C41.89 24.312 41.986 24.862 42.178 25.33C42.37 25.794 42.658 26.156 43.042 26.416C43.43 26.676 43.914 26.81 44.494 26.818C44.93 26.822 45.312 26.744 45.64 26.584C45.968 26.42 46.236 26.174 46.444 25.846C46.652 25.514 46.792 25.1 46.864 24.604H45.34V23.47H48.4C48.408 23.534 48.414 23.628 48.418 23.752C48.422 23.876 48.424 23.95 48.424 23.974C48.424 24.79 48.262 25.516 47.938 26.152C47.618 26.784 47.158 27.28 46.558 27.64C45.958 28 45.24 28.18 44.404 28.18ZM52.4911 28.18C51.8431 28.18 51.2771 28.034 50.7931 27.742C50.3091 27.45 49.9331 27.048 49.6651 26.536C49.4011 26.02 49.2691 25.428 49.2691 24.76C49.2691 24.08 49.4051 23.484 49.6771 22.972C49.9491 22.46 50.3271 22.06 50.8111 21.772C51.2951 21.484 51.8551 21.34 52.4911 21.34C53.1431 21.34 53.7111 21.486 54.1951 21.778C54.6791 22.07 55.0551 22.474 55.3231 22.99C55.5911 23.502 55.7251 24.092 55.7251 24.76C55.7251 25.432 55.5891 26.026 55.3171 26.542C55.0491 27.054 54.6731 27.456 54.1891 27.748C53.7051 28.036 53.1391 28.18 52.4911 28.18ZM52.4911 26.824C53.0671 26.824 53.4951 26.632 53.7751 26.248C54.0551 25.864 54.1951 25.368 54.1951 24.76C54.1951 24.132 54.0531 23.632 53.7691 23.26C53.4851 22.884 53.0591 22.696 52.4911 22.696C52.1031 22.696 51.7831 22.784 51.5311 22.96C51.2831 23.132 51.0991 23.374 50.9791 23.686C50.8591 23.994 50.7991 24.352 50.7991 24.76C50.7991 25.388 50.9411 25.89 51.2251 26.266C51.5131 26.638 51.9351 26.824 52.4911 26.824ZM59.909 28.18C59.261 28.18 58.695 28.034 58.211 27.742C57.727 27.45 57.351 27.048 57.083 26.536C56.819 26.02 56.687 25.428 56.687 24.76C56.687 24.08 56.823 23.484 57.095 22.972C57.367 22.46 57.745 22.06 58.229 21.772C58.713 21.484 59.273 21.34 59.909 21.34C60.561 21.34 61.129 21.486 61.613 21.778C62.097 22.07 62.473 22.474 62.741 22.99C63.009 23.502 63.143 24.092 63.143 24.76C63.143 25.432 63.007 26.026 62.735 26.542C62.467 27.054 62.091 27.456 61.607 27.748C61.123 28.036 60.557 28.18 59.909 28.18ZM59.909 26.824C60.485 26.824 60.913 26.632 61.193 26.248C61.473 25.864 61.613 25.368 61.613 24.76C61.613 24.132 61.471 23.632 61.187 23.26C60.903 22.884 60.477 22.696 59.909 22.696C59.521 22.696 59.201 22.784 58.949 22.96C58.701 23.132 58.517 23.374 58.397 23.686C58.277 23.994 58.217 24.352 58.217 24.76C58.217 25.388 58.359 25.89 58.643 26.266C58.931 26.638 59.353 26.824 59.909 26.824ZM67.189 31.06C66.829 31.06 66.483 31.004 66.151 30.892C65.823 30.78 65.527 30.618 65.263 30.406C64.999 30.198 64.783 29.946 64.615 29.65L65.947 28.99C66.071 29.226 66.245 29.4 66.469 29.512C66.697 29.628 66.939 29.686 67.195 29.686C67.495 29.686 67.763 29.632 67.999 29.524C68.235 29.42 68.417 29.264 68.545 29.056C68.677 28.852 68.739 28.596 68.731 28.288V26.446H68.911V21.52H70.177V28.312C70.177 28.476 70.169 28.632 70.153 28.78C70.141 28.932 70.119 29.08 70.087 29.224C69.991 29.644 69.807 29.988 69.535 30.256C69.263 30.528 68.925 30.73 68.521 30.862C68.121 30.994 67.677 31.06 67.189 31.06ZM67.063 28.18C66.467 28.18 65.947 28.03 65.503 27.73C65.059 27.43 64.715 27.022 64.471 26.506C64.227 25.99 64.105 25.408 64.105 24.76C64.105 24.104 64.227 23.52 64.471 23.008C64.719 22.492 65.069 22.086 65.521 21.79C65.973 21.49 66.505 21.34 67.117 21.34C67.733 21.34 68.249 21.49 68.665 21.79C69.085 22.086 69.403 22.492 69.619 23.008C69.835 23.524 69.943 24.108 69.943 24.76C69.943 25.404 69.835 25.986 69.619 26.506C69.403 27.022 69.081 27.43 68.653 27.73C68.225 28.03 67.695 28.18 67.063 28.18ZM67.285 26.884C67.673 26.884 67.985 26.796 68.221 26.62C68.461 26.44 68.635 26.19 68.743 25.87C68.855 25.55 68.911 25.18 68.911 24.76C68.911 24.336 68.855 23.966 68.743 23.65C68.635 23.33 68.465 23.082 68.233 22.906C68.001 22.726 67.701 22.636 67.333 22.636C66.945 22.636 66.625 22.732 66.373 22.924C66.121 23.112 65.935 23.368 65.815 23.692C65.695 24.012 65.635 24.368 65.635 24.76C65.635 25.156 65.693 25.516 65.809 25.84C65.929 26.16 66.111 26.414 66.355 26.602C66.599 26.79 66.909 26.884 67.285 26.884ZM71.9795 28V19.18H73.4255V28H71.9795ZM78.1688 28.18C77.5128 28.18 76.9368 28.038 76.4408 27.754C75.9448 27.47 75.5568 27.076 75.2768 26.572C75.0008 26.068 74.8628 25.488 74.8628 24.832C74.8628 24.124 74.9988 23.51 75.2708 22.99C75.5428 22.466 75.9208 22.06 76.4048 21.772C76.8888 21.484 77.4488 21.34 78.0848 21.34C78.7568 21.34 79.3268 21.498 79.7948 21.814C80.2668 22.126 80.6168 22.568 80.8448 23.14C81.0728 23.712 81.1588 24.386 81.1028 25.162H79.6688V24.634C79.6648 23.93 79.5408 23.416 79.2968 23.092C79.0528 22.768 78.6688 22.606 78.1448 22.606C77.5528 22.606 77.1128 22.79 76.8248 23.158C76.5368 23.522 76.3928 24.056 76.3928 24.76C76.3928 25.416 76.5368 25.924 76.8248 26.284C77.1128 26.644 77.5328 26.824 78.0848 26.824C78.4408 26.824 78.7468 26.746 79.0028 26.59C79.2628 26.43 79.4628 26.2 79.6028 25.9L81.0308 26.332C80.7828 26.916 80.3988 27.37 79.8788 27.694C79.3628 28.018 78.7928 28.18 78.1688 28.18ZM75.9368 25.162V24.07H80.3948V25.162H75.9368ZM84.8439 28V19.36H88.4139C88.4979 19.36 88.6059 19.364 88.7379 19.372C88.8699 19.376 88.9919 19.388 89.1039 19.408C89.6039 19.484 90.0159 19.65 90.3399 19.906C90.6679 20.162 90.9099 20.486 91.0659 20.878C91.2259 21.266 91.3059 21.698 91.3059 22.174C91.3059 22.646 91.2259 23.078 91.0659 23.47C90.9059 23.858 90.6619 24.18 90.3339 24.436C90.0099 24.692 89.5999 24.858 89.1039 24.934C88.9919 24.95 88.8679 24.962 88.7319 24.97C88.5999 24.978 88.4939 24.982 88.4139 24.982H86.2899V28H84.8439ZM86.2899 23.632H88.3539C88.4339 23.632 88.5239 23.628 88.6239 23.62C88.7239 23.612 88.8159 23.596 88.8999 23.572C89.1399 23.512 89.3279 23.406 89.4639 23.254C89.6039 23.102 89.7019 22.93 89.7579 22.738C89.8179 22.546 89.8479 22.358 89.8479 22.174C89.8479 21.99 89.8179 21.802 89.7579 21.61C89.7019 21.414 89.6039 21.24 89.4639 21.088C89.3279 20.936 89.1399 20.83 88.8999 20.77C88.8159 20.746 88.7239 20.732 88.6239 20.728C88.5239 20.72 88.4339 20.716 88.3539 20.716H86.2899V23.632ZM92.628 28V19.18H94.074V28H92.628ZM97.6833 28.18C97.2153 28.18 96.8193 28.092 96.4953 27.916C96.1713 27.736 95.9253 27.498 95.7573 27.202C95.5933 26.906 95.5113 26.58 95.5113 26.224C95.5113 25.912 95.5633 25.632 95.6673 25.384C95.7713 25.132 95.9313 24.916 96.1473 24.736C96.3633 24.552 96.6433 24.402 96.9873 24.286C97.2473 24.202 97.5513 24.126 97.8993 24.058C98.2513 23.99 98.6313 23.928 99.0393 23.872C99.4513 23.812 99.8813 23.748 100.329 23.68L99.8133 23.974C99.8173 23.526 99.7173 23.196 99.5133 22.984C99.3093 22.772 98.9653 22.666 98.4813 22.666C98.1893 22.666 97.9073 22.734 97.6353 22.87C97.3633 23.006 97.1733 23.24 97.0653 23.572L95.7453 23.158C95.9053 22.61 96.2093 22.17 96.6573 21.838C97.1093 21.506 97.7173 21.34 98.4813 21.34C99.0573 21.34 99.5633 21.434 99.9993 21.622C100.439 21.81 100.765 22.118 100.977 22.546C101.093 22.774 101.163 23.008 101.187 23.248C101.211 23.484 101.223 23.742 101.223 24.022V28H99.9573V26.596L100.167 26.824C99.8753 27.292 99.5333 27.636 99.1413 27.856C98.7533 28.072 98.2673 28.18 97.6833 28.18ZM97.9713 27.028C98.2993 27.028 98.5793 26.97 98.8113 26.854C99.0433 26.738 99.2273 26.596 99.3633 26.428C99.5033 26.26 99.5973 26.102 99.6453 25.954C99.7213 25.77 99.7633 25.56 99.7713 25.324C99.7833 25.084 99.7893 24.89 99.7893 24.742L100.233 24.874C99.7973 24.942 99.4233 25.002 99.1113 25.054C98.7993 25.106 98.5313 25.156 98.3073 25.204C98.0833 25.248 97.8853 25.298 97.7133 25.354C97.5453 25.414 97.4033 25.484 97.2873 25.564C97.1713 25.644 97.0813 25.736 97.0173 25.84C96.9573 25.944 96.9273 26.066 96.9273 26.206C96.9273 26.366 96.9673 26.508 97.0473 26.632C97.1273 26.752 97.2433 26.848 97.3953 26.92C97.5513 26.992 97.7433 27.028 97.9713 27.028ZM103.274 30.88L104.522 27.454L104.546 28.462L101.72 21.52H103.226L105.23 26.656H104.846L106.796 21.52H108.242L104.63 30.88H103.274Z" fill="white"/>
<defs>
<linearGradient id="paint0_linear_1940_6727" x1="20.3558" y1="6.95799" x2="1.81962" y2="11.9024" gradientUnits="userSpaceOnUse">
<stop stop-color="#00A0FF"/>
<stop offset="0.00657" stop-color="#00A1FF"/>
<stop offset="0.2601" stop-color="#00BEFF"/>
<stop offset="0.5122" stop-color="#00D2FF"/>
<stop offset="0.7604" stop-color="#00DFFF"/>
<stop offset="1" stop-color="#00E3FF"/>
</linearGradient>
<linearGradient id="paint1_linear_1940_6727" x1="31.5992" y1="17.4966" x2="8.99496" y2="17.4966" gradientUnits="userSpaceOnUse">
<stop stop-color="#FFE000"/>
<stop offset="0.4087" stop-color="#FFBD00"/>
<stop offset="0.7754" stop-color="#FFA500"/>
<stop offset="1" stop-color="#FF9C00"/>
</linearGradient>
<linearGradient id="paint2_linear_1940_6727" x1="23.184" y1="19.6402" x2="8.32528" y2="44.6762" gradientUnits="userSpaceOnUse">
<stop stop-color="#FF3A44"/>
<stop offset="1" stop-color="#C31162"/>
</linearGradient>
<linearGradient id="paint3_linear_1940_6727" x1="6.80623" y1="-0.999763" x2="13.4353" y2="10.1817" gradientUnits="userSpaceOnUse">
<stop stop-color="#32A071"/>
<stop offset="0.0685" stop-color="#2DA771"/>
<stop offset="0.4762" stop-color="#15CF74"/>
<stop offset="0.8009" stop-color="#06E775"/>
<stop offset="1" stop-color="#00F076"/>
</linearGradient>
<clipPath id="clip0_1940_6727">
<rect width="24" height="24" fill="white" transform="translate(8 5.5)"/>
</clipPath>
</defs>
</svg>
