<svg width="124" height="35" viewBox="0 0 124 35" fill="none" xmlns="http://www.w3.org/2000/svg">
<rect width="124" height="35" rx="4" fill="#4E4879"/>
<g clip-path="url(#clip0_1940_6746)">
<path fill-rule="evenodd" clip-rule="evenodd" d="M14.734 5.5C9.80341 5.5 8 7.30309 8 12.2327V22.7673C8 27.6969 9.80341 29.5 14.734 29.5H25.2628C30.1932 29.5 32 27.6969 32 22.7673V12.2327C32 7.30309 30.1966 5.5 25.266 5.5H14.734Z" fill="url(#paint0_linear_1940_6746)"/>
<path fill-rule="evenodd" clip-rule="evenodd" d="M18.4688 19.4195H19.4323L18.9489 18.2953L18.4688 19.4195ZM18.2315 19.986L17.9457 20.6401H17.2948L18.6788 17.5002H19.2413L20.6198 20.6401H19.9516L19.6694 19.986H18.2315ZM28.7044 20.6378H29.3334V17.5H28.7044V20.6378ZM26.2008 19.2899H27.3603V18.7177H26.2008V18.0746H27.884V17.5023H25.572V20.6399H27.9446V20.0676H26.2008V19.2899ZM23.7015 19.6606L22.9883 17.5H22.4679L21.7548 19.6606L21.0607 17.5017H20.3821L21.4774 20.6419H22.0049L22.7192 18.5792L23.4335 20.6419H23.9657L25.0581 17.5017H24.397L23.7015 19.6606ZM16.3346 19.2986C16.3346 19.8093 16.0809 20.0823 15.6203 20.0823C15.1572 20.0823 14.9021 19.8014 14.9021 19.2768V17.5021H14.2646V19.2986C14.2646 20.1822 14.7557 20.6889 15.6116 20.6889C16.476 20.6889 16.9715 20.1726 16.9715 19.2723V17.5002H16.3346V19.2986ZM12.7437 17.5002H13.3808V20.6421H12.7437V19.3661H11.3043V20.6421H10.6667V17.5002H11.3043V18.7675H12.7437V17.5002Z" fill="white"/>
<path fill-rule="evenodd" clip-rule="evenodd" d="M20 13.5C17.7942 13.5 16 11.7056 16 9.5H16.565C16.565 11.3939 18.1061 12.9348 20 12.9348C21.8939 12.9348 23.435 11.3939 23.435 9.5H24C24 11.7056 22.2056 13.5 20 13.5Z" fill="white"/>
</g>
<path d="M40.56 13V7.24H44.16V7.804H41.148V9.796H43.68V10.36H41.148V12.436H44.16V13H40.56ZM44.6425 13L46.6385 10.084L44.6945 7.24H45.4065L46.9865 9.592L48.5665 7.24H49.2825L47.3385 10.084L49.3305 13H48.6185L46.9865 10.58L45.3585 13H44.6425ZM49.9741 13V7.24H52.1981C52.2541 7.24 52.3167 7.24267 52.3861 7.248C52.4581 7.25067 52.5301 7.25867 52.6021 7.272C52.9034 7.31733 53.1581 7.42267 53.3661 7.588C53.5767 7.75067 53.7354 7.956 53.8421 8.204C53.9514 8.452 54.0061 8.72667 54.0061 9.028C54.0061 9.32667 53.9514 9.6 53.8421 9.848C53.7327 10.096 53.5727 10.3027 53.3621 10.468C53.1541 10.6307 52.9007 10.7347 52.6021 10.78C52.5301 10.7907 52.4581 10.7987 52.3861 10.804C52.3167 10.8093 52.2541 10.812 52.1981 10.812H50.5621V13H49.9741ZM50.5621 10.252H52.1821C52.2301 10.252 52.2861 10.2493 52.3501 10.244C52.4141 10.2387 52.4767 10.2293 52.5381 10.216C52.7354 10.1733 52.8967 10.092 53.0221 9.972C53.1501 9.852 53.2447 9.70933 53.3061 9.544C53.3701 9.37867 53.4021 9.20667 53.4021 9.028C53.4021 8.84933 53.3701 8.67733 53.3061 8.512C53.2447 8.344 53.1501 8.2 53.0221 8.08C52.8967 7.96 52.7354 7.87867 52.5381 7.836C52.4767 7.82267 52.4141 7.81467 52.3501 7.812C52.2861 7.80667 52.2301 7.804 52.1821 7.804H50.5621V10.252ZM54.8822 13V7.24H55.4702V12.436H58.2062V13H54.8822ZM61.0639 13.12C60.4905 13.12 60.0065 12.9933 59.6119 12.74C59.2172 12.484 58.9185 12.1307 58.7159 11.68C58.5132 11.2293 58.4119 10.7093 58.4119 10.12C58.4119 9.53067 58.5132 9.01067 58.7159 8.56C58.9185 8.10933 59.2172 7.75733 59.6119 7.504C60.0065 7.248 60.4905 7.12 61.0639 7.12C61.6399 7.12 62.1239 7.248 62.5159 7.504C62.9105 7.75733 63.2092 8.10933 63.4119 8.56C63.6172 9.01067 63.7199 9.53067 63.7199 10.12C63.7199 10.7093 63.6172 11.2293 63.4119 11.68C63.2092 12.1307 62.9105 12.484 62.5159 12.74C62.1239 12.9933 61.6399 13.12 61.0639 13.12ZM61.0639 12.556C61.5145 12.556 61.8905 12.4533 62.1919 12.248C62.4932 12.0427 62.7185 11.7573 62.8679 11.392C63.0199 11.024 63.0959 10.6 63.0959 10.12C63.0959 9.64 63.0199 9.21733 62.8679 8.852C62.7185 8.48667 62.4932 8.20133 62.1919 7.996C61.8905 7.79067 61.5145 7.68667 61.0639 7.684C60.6132 7.684 60.2385 7.78667 59.9399 7.992C59.6412 8.19733 59.4159 8.484 59.2639 8.852C59.1145 9.21733 59.0385 9.64 59.0359 10.12C59.0332 10.6 59.1065 11.0227 59.2559 11.388C59.4079 11.7507 59.6345 12.036 59.9359 12.244C60.2372 12.4493 60.6132 12.5533 61.0639 12.556ZM64.5209 13V7.24H66.7449C66.8009 7.24 66.8636 7.24267 66.9329 7.248C67.0049 7.25067 67.0769 7.25867 67.1489 7.272C67.4503 7.31733 67.7049 7.42267 67.9129 7.588C68.1236 7.75067 68.2823 7.956 68.3889 8.204C68.4983 8.452 68.5529 8.72667 68.5529 9.028C68.5529 9.46267 68.4383 9.84 68.2089 10.16C67.9796 10.48 67.6516 10.6813 67.2249 10.764L67.0209 10.812H65.1089V13H64.5209ZM68.0089 13L66.8729 10.656L67.4369 10.44L68.6849 13H68.0089ZM65.1089 10.252H66.7289C66.7769 10.252 66.8329 10.2493 66.8969 10.244C66.9609 10.2387 67.0236 10.2293 67.0849 10.216C67.2823 10.1733 67.4436 10.092 67.5689 9.972C67.6969 9.852 67.7916 9.70933 67.8529 9.544C67.9169 9.37867 67.9489 9.20667 67.9489 9.028C67.9489 8.84933 67.9169 8.67733 67.8529 8.512C67.7916 8.344 67.6969 8.2 67.5689 8.08C67.4436 7.96 67.2823 7.87867 67.0849 7.836C67.0236 7.82267 66.9609 7.81467 66.8969 7.812C66.8329 7.80667 66.7769 7.804 66.7289 7.804H65.1089V10.252ZM69.5678 13V7.24H73.1678V7.804H70.1558V9.796H72.6878V10.36H70.1558V12.436H73.1678V13H69.5678ZM75.8119 13V7.24H76.3999V13H75.8119ZM79.1311 13V7.804H77.1191V7.24H81.7311V7.804H79.7191V13H79.1311ZM86.0639 13.12C85.4905 13.12 85.0065 12.9933 84.6119 12.74C84.2172 12.484 83.9185 12.1307 83.7159 11.68C83.5132 11.2293 83.4119 10.7093 83.4119 10.12C83.4119 9.53067 83.5132 9.01067 83.7159 8.56C83.9185 8.10933 84.2172 7.75733 84.6119 7.504C85.0065 7.248 85.4905 7.12 86.0639 7.12C86.6399 7.12 87.1239 7.248 87.5159 7.504C87.9105 7.75733 88.2092 8.10933 88.4119 8.56C88.6172 9.01067 88.7199 9.53067 88.7199 10.12C88.7199 10.7093 88.6172 11.2293 88.4119 11.68C88.2092 12.1307 87.9105 12.484 87.5159 12.74C87.1239 12.9933 86.6399 13.12 86.0639 13.12ZM86.0639 12.556C86.5145 12.556 86.8905 12.4533 87.1919 12.248C87.4932 12.0427 87.7185 11.7573 87.8679 11.392C88.0199 11.024 88.0959 10.6 88.0959 10.12C88.0959 9.64 88.0199 9.21733 87.8679 8.852C87.7185 8.48667 87.4932 8.20133 87.1919 7.996C86.8905 7.79067 86.5145 7.68667 86.0639 7.684C85.6132 7.684 85.2385 7.78667 84.9399 7.992C84.6412 8.19733 84.4159 8.484 84.2639 8.852C84.1145 9.21733 84.0385 9.64 84.0359 10.12C84.0332 10.6 84.1065 11.0227 84.2559 11.388C84.4079 11.7507 84.6345 12.036 84.9359 12.244C85.2372 12.4493 85.6132 12.5533 86.0639 12.556ZM89.5209 13V7.24H90.1129L93.2849 11.96V7.24H93.8769V13H93.2849L90.1129 8.276V13H89.5209Z" fill="white"/>
<path d="M40.24 28L42.964 19.36H45.082L47.806 28H46.318L43.846 20.248H44.17L41.728 28H40.24ZM41.758 26.128V24.778H46.294V26.128H41.758ZM52.0048 28.18C51.3728 28.18 50.8428 28.03 50.4148 27.73C49.9868 27.43 49.6648 27.022 49.4488 26.506C49.2328 25.986 49.1248 25.404 49.1248 24.76C49.1248 24.108 49.2328 23.524 49.4488 23.008C49.6648 22.492 49.9808 22.086 50.3968 21.79C50.8168 21.49 51.3348 21.34 51.9508 21.34C52.5628 21.34 53.0928 21.49 53.5408 21.79C53.9928 22.086 54.3428 22.492 54.5908 23.008C54.8388 23.52 54.9628 24.104 54.9628 24.76C54.9628 25.408 54.8408 25.99 54.5968 26.506C54.3528 27.022 54.0088 27.43 53.5648 27.73C53.1208 28.03 52.6008 28.18 52.0048 28.18ZM48.8788 30.88V21.52H50.1568V26.068H50.3368V30.88H48.8788ZM51.7828 26.884C52.1588 26.884 52.4688 26.79 52.7128 26.602C52.9568 26.414 53.1368 26.16 53.2528 25.84C53.3728 25.516 53.4328 25.156 53.4328 24.76C53.4328 24.368 53.3728 24.012 53.2528 23.692C53.1328 23.368 52.9468 23.112 52.6948 22.924C52.4428 22.732 52.1228 22.636 51.7348 22.636C51.3668 22.636 51.0668 22.726 50.8348 22.906C50.6028 23.082 50.4308 23.33 50.3188 23.65C50.2108 23.966 50.1568 24.336 50.1568 24.76C50.1568 25.18 50.2108 25.55 50.3188 25.87C50.4308 26.19 50.6048 26.44 50.8408 26.62C51.0808 26.796 51.3948 26.884 51.7828 26.884ZM59.3993 28.18C58.7673 28.18 58.2373 28.03 57.8093 27.73C57.3813 27.43 57.0593 27.022 56.8433 26.506C56.6273 25.986 56.5193 25.404 56.5193 24.76C56.5193 24.108 56.6273 23.524 56.8433 23.008C57.0593 22.492 57.3753 22.086 57.7913 21.79C58.2113 21.49 58.7293 21.34 59.3453 21.34C59.9573 21.34 60.4873 21.49 60.9353 21.79C61.3873 22.086 61.7373 22.492 61.9853 23.008C62.2333 23.52 62.3573 24.104 62.3573 24.76C62.3573 25.408 62.2353 25.99 61.9913 26.506C61.7473 27.022 61.4033 27.43 60.9593 27.73C60.5153 28.03 59.9953 28.18 59.3993 28.18ZM56.2733 30.88V21.52H57.5513V26.068H57.7313V30.88H56.2733ZM59.1773 26.884C59.5533 26.884 59.8633 26.79 60.1073 26.602C60.3513 26.414 60.5313 26.16 60.6473 25.84C60.7673 25.516 60.8273 25.156 60.8273 24.76C60.8273 24.368 60.7673 24.012 60.6473 23.692C60.5273 23.368 60.3413 23.112 60.0893 22.924C59.8373 22.732 59.5173 22.636 59.1293 22.636C58.7613 22.636 58.4613 22.726 58.2293 22.906C57.9973 23.082 57.8253 23.33 57.7133 23.65C57.6053 23.966 57.5513 24.336 57.5513 24.76C57.5513 25.18 57.6053 25.55 57.7133 25.87C57.8253 26.19 57.9993 26.44 58.2353 26.62C58.4753 26.796 58.7893 26.884 59.1773 26.884ZM67.2438 28.18C66.6838 28.18 66.1578 28.082 65.6658 27.886C65.1778 27.686 64.7478 27.394 64.3758 27.01C64.0078 26.626 63.7198 26.156 63.5118 25.6C63.3038 25.04 63.1998 24.4 63.1998 23.68C63.1998 22.736 63.3758 21.93 63.7278 21.262C64.0798 20.59 64.5618 20.076 65.1738 19.72C65.7858 19.36 66.4758 19.18 67.2438 19.18C68.3078 19.18 69.1498 19.428 69.7698 19.924C70.3938 20.416 70.8158 21.108 71.0358 22L69.5598 22.234C69.3958 21.722 69.1278 21.314 68.7558 21.01C68.3838 20.702 67.9098 20.548 67.3338 20.548C66.7538 20.54 66.2718 20.666 65.8878 20.926C65.5038 21.186 65.2138 21.552 65.0178 22.024C64.8258 22.496 64.7298 23.048 64.7298 23.68C64.7298 24.312 64.8258 24.862 65.0178 25.33C65.2098 25.794 65.4978 26.156 65.8818 26.416C66.2698 26.676 66.7538 26.81 67.3338 26.818C67.7698 26.822 68.1518 26.744 68.4798 26.584C68.8078 26.42 69.0758 26.174 69.2838 25.846C69.4918 25.514 69.6318 25.1 69.7038 24.604H68.1798V23.47H71.2398C71.2478 23.534 71.2538 23.628 71.2578 23.752C71.2618 23.876 71.2638 23.95 71.2638 23.974C71.2638 24.79 71.1018 25.516 70.7778 26.152C70.4578 26.784 69.9978 27.28 69.3978 27.64C68.7978 28 68.0798 28.18 67.2438 28.18ZM74.2809 28.18C73.8129 28.18 73.4169 28.092 73.0929 27.916C72.7689 27.736 72.5229 27.498 72.3549 27.202C72.1909 26.906 72.1089 26.58 72.1089 26.224C72.1089 25.912 72.1609 25.632 72.2649 25.384C72.3689 25.132 72.5289 24.916 72.7449 24.736C72.9609 24.552 73.2409 24.402 73.5849 24.286C73.8449 24.202 74.1489 24.126 74.4969 24.058C74.8489 23.99 75.2289 23.928 75.6369 23.872C76.0489 23.812 76.4789 23.748 76.9269 23.68L76.4109 23.974C76.4149 23.526 76.3149 23.196 76.1109 22.984C75.9069 22.772 75.5629 22.666 75.0789 22.666C74.7869 22.666 74.5049 22.734 74.2329 22.87C73.9609 23.006 73.7709 23.24 73.6629 23.572L72.3429 23.158C72.5029 22.61 72.8069 22.17 73.2549 21.838C73.7069 21.506 74.3149 21.34 75.0789 21.34C75.6549 21.34 76.1609 21.434 76.5969 21.622C77.0369 21.81 77.3629 22.118 77.5749 22.546C77.6909 22.774 77.7609 23.008 77.7849 23.248C77.8089 23.484 77.8209 23.742 77.8209 24.022V28H76.5549V26.596L76.7649 26.824C76.4729 27.292 76.1309 27.636 75.7389 27.856C75.3509 28.072 74.8649 28.18 74.2809 28.18ZM74.5689 27.028C74.8969 27.028 75.1769 26.97 75.4089 26.854C75.6409 26.738 75.8249 26.596 75.9609 26.428C76.1009 26.26 76.1949 26.102 76.2429 25.954C76.3189 25.77 76.3609 25.56 76.3689 25.324C76.3809 25.084 76.3869 24.89 76.3869 24.742L76.8309 24.874C76.3949 24.942 76.0209 25.002 75.7089 25.054C75.3969 25.106 75.1289 25.156 74.9049 25.204C74.6809 25.248 74.4829 25.298 74.3109 25.354C74.1429 25.414 74.0009 25.484 73.8849 25.564C73.7689 25.644 73.6789 25.736 73.6149 25.84C73.5549 25.944 73.5249 26.066 73.5249 26.206C73.5249 26.366 73.5649 26.508 73.6449 26.632C73.7249 26.752 73.8409 26.848 73.9929 26.92C74.1489 26.992 74.3409 27.028 74.5689 27.028ZM79.503 28V19.18H80.949V28H79.503ZM82.8663 28V19.18H84.3123V28H82.8663ZM89.0555 28.18C88.3995 28.18 87.8235 28.038 87.3275 27.754C86.8315 27.47 86.4435 27.076 86.1635 26.572C85.8875 26.068 85.7495 25.488 85.7495 24.832C85.7495 24.124 85.8855 23.51 86.1575 22.99C86.4295 22.466 86.8075 22.06 87.2915 21.772C87.7755 21.484 88.3355 21.34 88.9715 21.34C89.6435 21.34 90.2135 21.498 90.6815 21.814C91.1535 22.126 91.5035 22.568 91.7315 23.14C91.9595 23.712 92.0455 24.386 91.9895 25.162H90.5555V24.634C90.5515 23.93 90.4275 23.416 90.1835 23.092C89.9395 22.768 89.5555 22.606 89.0315 22.606C88.4395 22.606 87.9995 22.79 87.7115 23.158C87.4235 23.522 87.2795 24.056 87.2795 24.76C87.2795 25.416 87.4235 25.924 87.7115 26.284C87.9995 26.644 88.4195 26.824 88.9715 26.824C89.3275 26.824 89.6335 26.746 89.8895 26.59C90.1495 26.43 90.3495 26.2 90.4895 25.9L91.9175 26.332C91.6695 26.916 91.2855 27.37 90.7655 27.694C90.2495 28.018 89.6795 28.18 89.0555 28.18ZM86.8235 25.162V24.07H91.2815V25.162H86.8235ZM93.3283 28V21.52H94.6063V23.098L94.4503 22.894C94.5303 22.678 94.6363 22.482 94.7683 22.306C94.9043 22.126 95.0663 21.978 95.2543 21.862C95.4143 21.754 95.5903 21.67 95.7823 21.61C95.9783 21.546 96.1783 21.508 96.3823 21.496C96.5863 21.48 96.7843 21.488 96.9763 21.52V22.87C96.7843 22.814 96.5623 22.796 96.3103 22.816C96.0623 22.836 95.8383 22.906 95.6383 23.026C95.4383 23.134 95.2743 23.272 95.1463 23.44C95.0223 23.608 94.9303 23.8 94.8703 24.016C94.8103 24.228 94.7803 24.458 94.7803 24.706V28H93.3283ZM98.774 30.88L100.022 27.454L100.046 28.462L97.22 21.52H98.726L100.73 26.656H100.346L102.296 21.52H103.742L100.13 30.88H98.774Z" fill="white"/>
<defs>
<linearGradient id="paint0_linear_1940_6746" x1="20" y1="5.5" x2="20" y2="29.5" gradientUnits="userSpaceOnUse">
<stop stop-color="#FB6361"/>
<stop offset="1" stop-color="#ED3E45"/>
</linearGradient>
<clipPath id="clip0_1940_6746">
<rect width="24" height="24" fill="white" transform="translate(8 5.5)"/>
</clipPath>
</defs>
</svg>
