<svg width="933" height="1079" viewBox="0 0 933 1079" fill="none" xmlns="http://www.w3.org/2000/svg">
<g clip-path="url(#clip0_1940_6479)">
<path d="M755.468 48.9336C755.996 112.803 707.242 166.728 654.094 202.288C589.554 245.458 513.962 272.034 436.578 278.758C383.901 283.335 330.885 278.872 278.02 278.589C225.135 278.306 171.082 282.45 122.422 303.169C73.7816 323.868 30.8933 363.478 17.3516 414.54" stroke="url(#paint0_linear_1940_6479)" stroke-miterlimit="10"/>
<path d="M0.943115 198.239C77.5159 219.56 162.029 210.971 232.755 174.714C303.481 138.475 359.704 74.8881 386.995 0.320312" stroke="url(#paint1_linear_1940_6479)" stroke-miterlimit="10"/>
<path d="M461.776 160.173L510.812 111.202" stroke="url(#paint2_linear_1940_6479)" stroke-miterlimit="10"/>
<path d="M284.527 230.447L304.104 210.877" stroke="url(#paint3_linear_1940_6479)" stroke-miterlimit="10"/>
<path d="M207.162 406.912L60.0513 553.825" stroke="url(#paint4_linear_1940_6479)" stroke-miterlimit="10"/>
<path d="M133.606 649.884L154.353 629.165" stroke="url(#paint5_linear_1940_6479)" stroke-miterlimit="10"/>
<path d="M305.235 840.117L268.458 876.845" stroke="url(#paint6_linear_1940_6479)" stroke-miterlimit="10"/>
<path d="M110.974 1005.87L37.4189 1079.32" stroke="url(#paint7_linear_1940_6479)" stroke-miterlimit="10"/>
<path d="M846.526 156.406L932.34 70.7068" stroke="url(#paint8_linear_1940_6479)" stroke-miterlimit="10"/>
<path d="M714.503 220.671L735.344 199.84" stroke="url(#paint9_linear_1940_6479)" stroke-miterlimit="10"/>
<path d="M512.698 298.912L457.683 353.854" stroke="url(#paint10_linear_1940_6479)" stroke-miterlimit="10"/>
<path d="M93.8867 868.2C93.8867 870.517 92.0006 872.419 89.662 872.419C87.3233 872.419 85.4373 870.536 85.4373 868.2C85.4373 865.865 87.3233 863.981 89.662 863.981C92.0006 863.981 93.8867 865.865 93.8867 868.2Z" stroke="url(#paint11_linear_1940_6479)" stroke-miterlimit="10"/>
<path d="M137.379 868.2C137.379 870.517 135.493 872.419 133.154 872.419C130.815 872.419 128.929 870.536 128.929 868.2C128.929 865.865 130.815 863.981 133.154 863.981C135.493 863.981 137.379 865.865 137.379 868.2Z" stroke="url(#paint12_linear_1940_6479)" stroke-miterlimit="10"/>
<path d="M180.889 868.2C180.889 870.517 179.003 872.419 176.664 872.419C174.326 872.419 172.44 870.536 172.44 868.2C172.44 865.865 174.326 863.981 176.664 863.981C179.003 863.981 180.889 865.865 180.889 868.2Z" stroke="url(#paint13_linear_1940_6479)" stroke-miterlimit="10"/>
<path d="M224.381 868.2C224.381 870.517 222.495 872.419 220.156 872.419C217.818 872.419 215.932 870.536 215.932 868.2C215.932 865.865 217.818 863.981 220.156 863.981C222.495 863.981 224.381 865.865 224.381 868.2Z" stroke="url(#paint14_linear_1940_6479)" stroke-miterlimit="10"/>
<path d="M267.873 868.2C267.873 870.517 265.987 872.419 263.648 872.419C261.31 872.419 259.424 870.536 259.424 868.2C259.424 865.865 261.31 863.981 263.648 863.981C265.987 863.981 267.873 865.865 267.873 868.2Z" stroke="url(#paint15_linear_1940_6479)" stroke-miterlimit="10"/>
<path d="M93.8867 899.899C93.8867 902.216 92.0006 904.118 89.662 904.118C87.3233 904.118 85.4373 902.235 85.4373 899.899C85.4373 897.564 87.3233 895.68 89.662 895.68C92.0006 895.68 93.8867 897.564 93.8867 899.899Z" stroke="url(#paint16_linear_1940_6479)" stroke-miterlimit="10"/>
<path d="M137.379 899.899C137.379 902.216 135.493 904.118 133.154 904.118C130.815 904.118 128.929 902.235 128.929 899.899C128.929 897.564 130.815 895.68 133.154 895.68C135.493 895.68 137.379 897.564 137.379 899.899Z" stroke="url(#paint17_linear_1940_6479)" stroke-miterlimit="10"/>
<path d="M180.889 899.899C180.889 902.216 179.003 904.118 176.664 904.118C174.326 904.118 172.44 902.235 172.44 899.899C172.44 897.564 174.326 895.68 176.664 895.68C179.003 895.68 180.889 897.564 180.889 899.899Z" stroke="url(#paint18_linear_1940_6479)" stroke-miterlimit="10"/>
<path d="M224.381 899.899C224.381 902.216 222.495 904.118 220.156 904.118C217.818 904.118 215.932 902.235 215.932 899.899C215.932 897.564 217.818 895.68 220.156 895.68C222.495 895.68 224.381 897.564 224.381 899.899Z" stroke="url(#paint19_linear_1940_6479)" stroke-miterlimit="10"/>
<path d="M267.873 899.899C267.873 902.216 265.987 904.118 263.648 904.118C261.31 904.118 259.424 902.235 259.424 899.899C259.424 897.564 261.31 895.68 263.648 895.68C265.987 895.68 267.873 897.564 267.873 899.899Z" stroke="url(#paint20_linear_1940_6479)" stroke-miterlimit="10"/>
<path d="M89.6808 935.818C92.014 935.818 93.9055 933.929 93.9055 931.599C93.9055 929.269 92.014 927.38 89.6808 927.38C87.3475 927.38 85.4561 929.269 85.4561 931.599C85.4561 933.929 87.3475 935.818 89.6808 935.818Z" stroke="url(#paint21_linear_1940_6479)" stroke-miterlimit="10"/>
<path d="M133.173 935.818C135.506 935.818 137.397 933.929 137.397 931.599C137.397 929.269 135.506 927.38 133.173 927.38C130.839 927.38 128.948 929.269 128.948 931.599C128.948 933.929 130.839 935.818 133.173 935.818Z" stroke="url(#paint22_linear_1940_6479)" stroke-miterlimit="10"/>
<path d="M180.889 931.599C180.889 933.916 179.003 935.818 176.664 935.818C174.326 935.818 172.44 933.934 172.44 931.599C172.44 929.263 174.326 927.38 176.664 927.38C179.003 927.38 180.889 929.263 180.889 931.599Z" stroke="url(#paint23_linear_1940_6479)" stroke-miterlimit="10"/>
<path d="M224.381 931.599C224.381 933.916 222.495 935.818 220.156 935.818C217.818 935.818 215.932 933.934 215.932 931.599C215.932 929.263 217.818 927.38 220.156 927.38C222.495 927.38 224.381 929.263 224.381 931.599Z" stroke="url(#paint24_linear_1940_6479)" stroke-miterlimit="10"/>
<path d="M263.667 935.818C266 935.818 267.892 933.929 267.892 931.599C267.892 929.269 266 927.38 263.667 927.38C261.334 927.38 259.442 929.269 259.442 931.599C259.442 933.929 261.334 935.818 263.667 935.818Z" stroke="url(#paint25_linear_1940_6479)" stroke-miterlimit="10"/>
<path d="M316.136 132.504C324.594 132.504 331.451 125.657 331.451 117.21C331.451 108.764 324.594 101.916 316.136 101.916C307.678 101.916 300.822 108.764 300.822 117.21C300.822 125.657 307.678 132.504 316.136 132.504Z" stroke="url(#paint26_linear_1940_6479)" stroke-miterlimit="10"/>
<path d="M212.895 286.97C217.457 286.97 221.156 283.277 221.156 278.721C221.156 274.164 217.457 270.471 212.895 270.471C208.333 270.471 204.634 274.164 204.634 278.721C204.634 283.277 208.333 286.97 212.895 286.97Z" stroke="url(#paint27_linear_1940_6479)" stroke-miterlimit="10"/>
<path d="M84.3999 467.316C89.8685 467.316 94.3016 462.888 94.3016 457.427C94.3016 451.966 89.8685 447.539 84.3999 447.539C78.9314 447.539 74.4983 451.966 74.4983 457.427C74.4983 462.888 78.9314 467.316 84.3999 467.316Z" stroke="url(#paint28_linear_1940_6479)" stroke-miterlimit="10"/>
<path d="M364.004 897.696C368.17 897.696 371.548 894.323 371.548 890.162C371.548 886.001 368.17 882.628 364.004 882.628C359.837 882.628 356.46 886.001 356.46 890.162C356.46 894.323 359.837 897.696 364.004 897.696Z" stroke="url(#paint29_linear_1940_6479)" stroke-miterlimit="10"/>
<path d="M69.3116 746.074C77.6446 746.074 84.3999 739.328 84.3999 731.006C84.3999 722.684 77.6446 715.938 69.3116 715.938C60.9786 715.938 54.2234 722.684 54.2234 731.006C54.2234 739.328 60.9786 746.074 69.3116 746.074Z" stroke="url(#paint30_linear_1940_6479)" stroke-miterlimit="10"/>
<path d="M498.968 95.7949C502.551 95.7949 505.456 92.8941 505.456 89.3157C505.456 85.7373 502.551 82.8364 498.968 82.8364C495.385 82.8364 492.48 85.7373 492.48 89.3157C492.48 92.8941 495.385 95.7949 498.968 95.7949Z" stroke="url(#paint31_linear_1940_6479)" stroke-miterlimit="10"/>
<path d="M500.741 1033.31C530.948 1033.31 555.436 1008.85 555.436 978.686C555.436 948.52 530.948 924.065 500.741 924.065C470.534 924.065 446.046 948.52 446.046 978.686C446.046 1008.85 470.534 1033.31 500.741 1033.31Z" stroke="url(#paint32_linear_1940_6479)" stroke-miterlimit="10"/>
<path d="M15.0883 74.6056C22.9005 74.6056 29.2336 68.281 29.2336 60.4793C29.2336 52.6776 22.9005 46.353 15.0883 46.353C7.27615 46.353 0.943115 52.6776 0.943115 60.4793C0.943115 68.281 7.27615 74.6056 15.0883 74.6056Z" stroke="url(#paint33_linear_1940_6479)" stroke-miterlimit="10"/>
<path d="M19.0868 311.908C25.9824 311.908 31.5724 306.326 31.5724 299.439C31.5724 292.553 25.9824 286.97 19.0868 286.97C12.1913 286.97 6.60132 292.553 6.60132 299.439C6.60132 306.326 12.1913 311.908 19.0868 311.908Z" stroke="url(#paint34_linear_1940_6479)" stroke-miterlimit="10"/>
</g>
<defs>
<linearGradient id="paint0_linear_1940_6479" x1="755.472" y1="48.9336" x2="-23.0771" y2="187.676" gradientUnits="userSpaceOnUse">
<stop stop-color="#9C60F3"/>
<stop offset="1" stop-color="#7360F2"/>
</linearGradient>
<linearGradient id="paint1_linear_1940_6479" x1="386.995" y1="0.320295" x2="-22.2966" y2="66.9191" gradientUnits="userSpaceOnUse">
<stop stop-color="#9C60F3"/>
<stop offset="1" stop-color="#7360F2"/>
</linearGradient>
<linearGradient id="paint2_linear_1940_6479" x1="510.812" y1="111.202" x2="457.861" y2="115.882" gradientUnits="userSpaceOnUse">
<stop stop-color="#9C60F3"/>
<stop offset="1" stop-color="#7360F2"/>
</linearGradient>
<linearGradient id="paint3_linear_1940_6479" x1="304.104" y1="210.877" x2="282.963" y2="212.744" gradientUnits="userSpaceOnUse">
<stop stop-color="#9C60F3"/>
<stop offset="1" stop-color="#7360F2"/>
</linearGradient>
<linearGradient id="paint4_linear_1940_6479" x1="207.162" y1="406.912" x2="48.307" y2="420.953" gradientUnits="userSpaceOnUse">
<stop stop-color="#9C60F3"/>
<stop offset="1" stop-color="#7360F2"/>
</linearGradient>
<linearGradient id="paint5_linear_1940_6479" x1="154.353" y1="629.165" x2="131.95" y2="631.145" gradientUnits="userSpaceOnUse">
<stop stop-color="#9C60F3"/>
<stop offset="1" stop-color="#7360F2"/>
</linearGradient>
<linearGradient id="paint6_linear_1940_6479" x1="305.235" y1="840.117" x2="265.521" y2="843.627" gradientUnits="userSpaceOnUse">
<stop stop-color="#9C60F3"/>
<stop offset="1" stop-color="#7360F2"/>
</linearGradient>
<linearGradient id="paint7_linear_1940_6479" x1="110.974" y1="1005.87" x2="31.5468" y2="1012.89" gradientUnits="userSpaceOnUse">
<stop stop-color="#9C60F3"/>
<stop offset="1" stop-color="#7360F2"/>
</linearGradient>
<linearGradient id="paint8_linear_1940_6479" x1="932.34" y1="70.7068" x2="839.675" y2="78.8972" gradientUnits="userSpaceOnUse">
<stop stop-color="#9C60F3"/>
<stop offset="1" stop-color="#7360F2"/>
</linearGradient>
<linearGradient id="paint9_linear_1940_6479" x1="735.344" y1="199.84" x2="712.839" y2="201.827" gradientUnits="userSpaceOnUse">
<stop stop-color="#9C60F3"/>
<stop offset="1" stop-color="#7360F2"/>
</linearGradient>
<linearGradient id="paint10_linear_1940_6479" x1="512.698" y1="298.912" x2="453.291" y2="304.163" gradientUnits="userSpaceOnUse">
<stop stop-color="#9C60F3"/>
<stop offset="1" stop-color="#7360F2"/>
</linearGradient>
<linearGradient id="paint11_linear_1940_6479" x1="93.8867" y1="863.981" x2="84.7627" y2="864.788" gradientUnits="userSpaceOnUse">
<stop stop-color="#9C60F3"/>
<stop offset="1" stop-color="#7360F2"/>
</linearGradient>
<linearGradient id="paint12_linear_1940_6479" x1="137.379" y1="863.981" x2="128.255" y2="864.788" gradientUnits="userSpaceOnUse">
<stop stop-color="#9C60F3"/>
<stop offset="1" stop-color="#7360F2"/>
</linearGradient>
<linearGradient id="paint13_linear_1940_6479" x1="180.889" y1="863.981" x2="171.765" y2="864.788" gradientUnits="userSpaceOnUse">
<stop stop-color="#9C60F3"/>
<stop offset="1" stop-color="#7360F2"/>
</linearGradient>
<linearGradient id="paint14_linear_1940_6479" x1="224.381" y1="863.981" x2="215.257" y2="864.788" gradientUnits="userSpaceOnUse">
<stop stop-color="#9C60F3"/>
<stop offset="1" stop-color="#7360F2"/>
</linearGradient>
<linearGradient id="paint15_linear_1940_6479" x1="267.873" y1="863.981" x2="258.749" y2="864.788" gradientUnits="userSpaceOnUse">
<stop stop-color="#9C60F3"/>
<stop offset="1" stop-color="#7360F2"/>
</linearGradient>
<linearGradient id="paint16_linear_1940_6479" x1="93.8867" y1="895.68" x2="84.7627" y2="896.487" gradientUnits="userSpaceOnUse">
<stop stop-color="#9C60F3"/>
<stop offset="1" stop-color="#7360F2"/>
</linearGradient>
<linearGradient id="paint17_linear_1940_6479" x1="137.379" y1="895.68" x2="128.255" y2="896.487" gradientUnits="userSpaceOnUse">
<stop stop-color="#9C60F3"/>
<stop offset="1" stop-color="#7360F2"/>
</linearGradient>
<linearGradient id="paint18_linear_1940_6479" x1="180.889" y1="895.68" x2="171.765" y2="896.487" gradientUnits="userSpaceOnUse">
<stop stop-color="#9C60F3"/>
<stop offset="1" stop-color="#7360F2"/>
</linearGradient>
<linearGradient id="paint19_linear_1940_6479" x1="224.381" y1="895.68" x2="215.257" y2="896.487" gradientUnits="userSpaceOnUse">
<stop stop-color="#9C60F3"/>
<stop offset="1" stop-color="#7360F2"/>
</linearGradient>
<linearGradient id="paint20_linear_1940_6479" x1="267.873" y1="895.68" x2="258.749" y2="896.487" gradientUnits="userSpaceOnUse">
<stop stop-color="#9C60F3"/>
<stop offset="1" stop-color="#7360F2"/>
</linearGradient>
<linearGradient id="paint21_linear_1940_6479" x1="93.9055" y1="927.38" x2="84.7815" y2="928.186" gradientUnits="userSpaceOnUse">
<stop stop-color="#9C60F3"/>
<stop offset="1" stop-color="#7360F2"/>
</linearGradient>
<linearGradient id="paint22_linear_1940_6479" x1="137.397" y1="927.38" x2="128.273" y2="928.186" gradientUnits="userSpaceOnUse">
<stop stop-color="#9C60F3"/>
<stop offset="1" stop-color="#7360F2"/>
</linearGradient>
<linearGradient id="paint23_linear_1940_6479" x1="180.889" y1="927.38" x2="171.765" y2="928.186" gradientUnits="userSpaceOnUse">
<stop stop-color="#9C60F3"/>
<stop offset="1" stop-color="#7360F2"/>
</linearGradient>
<linearGradient id="paint24_linear_1940_6479" x1="224.381" y1="927.38" x2="215.257" y2="928.186" gradientUnits="userSpaceOnUse">
<stop stop-color="#9C60F3"/>
<stop offset="1" stop-color="#7360F2"/>
</linearGradient>
<linearGradient id="paint25_linear_1940_6479" x1="267.892" y1="927.38" x2="258.768" y2="928.186" gradientUnits="userSpaceOnUse">
<stop stop-color="#9C60F3"/>
<stop offset="1" stop-color="#7360F2"/>
</linearGradient>
<linearGradient id="paint26_linear_1940_6479" x1="331.451" y1="101.916" x2="298.377" y2="104.84" gradientUnits="userSpaceOnUse">
<stop stop-color="#9C60F3"/>
<stop offset="1" stop-color="#7360F2"/>
</linearGradient>
<linearGradient id="paint27_linear_1940_6479" x1="221.156" y1="270.471" x2="203.315" y2="272.048" gradientUnits="userSpaceOnUse">
<stop stop-color="#9C60F3"/>
<stop offset="1" stop-color="#7360F2"/>
</linearGradient>
<linearGradient id="paint28_linear_1940_6479" x1="94.3016" y1="447.539" x2="72.9173" y2="449.429" gradientUnits="userSpaceOnUse">
<stop stop-color="#9C60F3"/>
<stop offset="1" stop-color="#7360F2"/>
</linearGradient>
<linearGradient id="paint29_linear_1940_6479" x1="371.548" y1="882.628" x2="355.255" y2="884.068" gradientUnits="userSpaceOnUse">
<stop stop-color="#9C60F3"/>
<stop offset="1" stop-color="#7360F2"/>
</linearGradient>
<linearGradient id="paint30_linear_1940_6479" x1="84.3999" y1="715.938" x2="51.8143" y2="718.818" gradientUnits="userSpaceOnUse">
<stop stop-color="#9C60F3"/>
<stop offset="1" stop-color="#7360F2"/>
</linearGradient>
<linearGradient id="paint31_linear_1940_6479" x1="505.456" y1="82.8364" x2="491.444" y2="84.0749" gradientUnits="userSpaceOnUse">
<stop stop-color="#9C60F3"/>
<stop offset="1" stop-color="#7360F2"/>
</linearGradient>
<linearGradient id="paint32_linear_1940_6479" x1="555.436" y1="924.065" x2="437.313" y2="934.506" gradientUnits="userSpaceOnUse">
<stop stop-color="#9C60F3"/>
<stop offset="1" stop-color="#7360F2"/>
</linearGradient>
<linearGradient id="paint33_linear_1940_6479" x1="29.2336" y1="46.353" x2="-1.3154" y2="49.0532" gradientUnits="userSpaceOnUse">
<stop stop-color="#9C60F3"/>
<stop offset="1" stop-color="#7360F2"/>
</linearGradient>
<linearGradient id="paint34_linear_1940_6479" x1="31.5724" y1="286.97" x2="4.6078" y2="289.354" gradientUnits="userSpaceOnUse">
<stop stop-color="#9C60F3"/>
<stop offset="1" stop-color="#7360F2"/>
</linearGradient>
<clipPath id="clip0_1940_6479">
<rect width="933" height="1080" fill="white"/>
</clipPath>
</defs>
</svg>
