<svg width="939" height="1080" viewBox="0 0 939 1080" fill="none" xmlns="http://www.w3.org/2000/svg">
<g clip-path="url(#clip0_1940_6517)">
<path d="M938.016 388.825C922.086 364.625 890.365 354.239 861.597 357.628C832.829 361.018 806.68 376.094 783.741 393.791C700.391 458.077 651.972 556.298 600.816 648.351C549.68 740.403 487.773 834.348 391.88 877.704C352.519 895.5 309.633 903.619 267.791 914.36C225.948 925.1 183.752 939.152 150.317 966.525C116.883 993.899 93.589 1037.14 100.343 1079.84" stroke="url(#paint0_linear_1940_6517)" stroke-miterlimit="10"/>
<path d="M937.72 605.133C917.36 593.998 892.058 594.944 870.241 602.827C848.424 610.69 829.462 624.82 811.504 639.502C770.312 673.162 730.832 713.464 717.029 764.86C704.703 810.778 715.533 862.293 745.324 899.323C775.096 936.353 823.062 957.992 870.516 955.765" stroke="url(#paint1_linear_1940_6517)" stroke-miterlimit="10"/>
<path d="M0.689209 1001.82L62.7142 939.743" stroke="url(#paint2_linear_1940_6517)" stroke-miterlimit="10"/>
<path d="M697.732 193.821L807.015 84.4458" stroke="url(#paint3_linear_1940_6517)" stroke-miterlimit="10"/>
<path d="M772.556 18.4263L790.278 0.689697" stroke="url(#paint4_linear_1940_6517)" stroke-miterlimit="10"/>
<path d="M553.992 649.06L594.357 608.66" stroke="url(#paint5_linear_1940_6517)" stroke-miterlimit="10"/>
<path d="M752.374 609.646L830.899 531.073" stroke="url(#paint6_linear_1940_6517)" stroke-miterlimit="10"/>
<path d="M591.404 877.665L425.019 1044.19" stroke="url(#paint7_linear_1940_6517)" stroke-miterlimit="10"/>
<path d="M781.417 846.133L821.29 806.226" stroke="url(#paint8_linear_1940_6517)" stroke-miterlimit="10"/>
<path d="M691.825 970.782L627.103 1035.58" stroke="url(#paint9_linear_1940_6517)" stroke-miterlimit="10"/>
<path d="M372.839 794.894L330.505 837.265" stroke="url(#paint10_linear_1940_6517)" stroke-miterlimit="10"/>
<path d="M652.011 1023.11C656.905 1023.11 660.872 1019.13 660.872 1014.24C660.872 1009.34 656.905 1005.37 652.011 1005.37C647.118 1005.37 643.151 1009.34 643.151 1014.24C643.151 1019.13 647.118 1023.11 652.011 1023.11Z" stroke="url(#paint11_linear_1940_6517)" stroke-miterlimit="10"/>
<path d="M800.182 860.52C808.066 860.52 814.458 854.123 814.458 846.232C814.458 838.341 808.066 831.944 800.182 831.944C792.298 831.944 785.906 838.341 785.906 846.232C785.906 854.123 792.298 860.52 800.182 860.52Z" stroke="url(#paint12_linear_1940_6517)" stroke-miterlimit="10"/>
<path d="M838.086 1005.37C842.98 1005.37 846.947 1001.4 846.947 996.5C846.947 991.602 842.98 987.632 838.086 987.632C833.193 987.632 829.226 991.602 829.226 996.5C829.226 1001.4 833.193 1005.37 838.086 1005.37Z" stroke="url(#paint13_linear_1940_6517)" stroke-miterlimit="10"/>
<path d="M897.65 457.505C918.04 457.505 934.57 440.962 934.57 420.554C934.57 400.146 918.04 383.603 897.65 383.603C877.26 383.603 860.73 400.146 860.73 420.554C860.73 440.962 877.26 457.505 897.65 457.505Z" stroke="url(#paint14_linear_1940_6517)" stroke-miterlimit="10"/>
<path d="M932.365 640.271C935.486 640.271 938.016 637.738 938.016 634.615C938.016 631.491 935.486 628.959 932.365 628.959C929.243 628.959 926.713 631.491 926.713 634.615C926.713 637.738 929.243 640.271 932.365 640.271Z" stroke="url(#paint15_linear_1940_6517)" stroke-miterlimit="10"/>
<path d="M386.682 164.852C391.304 164.852 395.05 161.102 395.05 156.476C395.05 151.85 391.304 148.1 386.682 148.1C382.06 148.1 378.313 151.85 378.313 156.476C378.313 161.102 382.06 164.852 386.682 164.852Z" stroke="url(#paint16_linear_1940_6517)" stroke-miterlimit="10"/>
<path d="M534.853 134.305C556.059 134.305 573.249 117.1 573.249 95.876C573.249 74.6521 556.059 57.4468 534.853 57.4468C513.647 57.4468 496.456 74.6521 496.456 95.876C496.456 117.1 513.647 134.305 534.853 134.305Z" stroke="url(#paint17_linear_1940_6517)" stroke-miterlimit="10"/>
<path d="M655.733 154.505C658.169 154.505 660.143 152.529 660.143 150.091C660.143 147.653 658.169 145.676 655.733 145.676C653.297 145.676 651.322 147.653 651.322 150.091C651.322 152.529 653.297 154.505 655.733 154.505Z" stroke="url(#paint18_linear_1940_6517)" stroke-miterlimit="10"/>
<path d="M705.55 150.091C705.55 152.515 703.581 154.505 701.139 154.505C698.697 154.505 696.728 152.534 696.728 150.091C696.728 147.647 698.697 145.676 701.139 145.676C703.581 145.676 705.55 147.647 705.55 150.091Z" stroke="url(#paint19_linear_1940_6517)" stroke-miterlimit="10"/>
<path d="M746.565 154.505C749.001 154.505 750.976 152.529 750.976 150.091C750.976 147.653 749.001 145.676 746.565 145.676C744.129 145.676 742.154 147.653 742.154 150.091C742.154 152.529 744.129 154.505 746.565 154.505Z" stroke="url(#paint20_linear_1940_6517)" stroke-miterlimit="10"/>
<path d="M791.971 154.505C794.407 154.505 796.382 152.529 796.382 150.091C796.382 147.653 794.407 145.676 791.971 145.676C789.535 145.676 787.561 147.653 787.561 150.091C787.561 152.529 789.535 154.505 791.971 154.505Z" stroke="url(#paint21_linear_1940_6517)" stroke-miterlimit="10"/>
<path d="M841.788 150.091C841.788 152.515 839.819 154.505 837.377 154.505C834.936 154.505 832.967 152.534 832.967 150.091C832.967 147.647 834.936 145.676 837.377 145.676C839.819 145.676 841.788 147.647 841.788 150.091Z" stroke="url(#paint22_linear_1940_6517)" stroke-miterlimit="10"/>
<path d="M655.733 187.673C658.169 187.673 660.143 185.696 660.143 183.258C660.143 180.82 658.169 178.844 655.733 178.844C653.297 178.844 651.322 180.82 651.322 183.258C651.322 185.696 653.297 187.673 655.733 187.673Z" stroke="url(#paint23_linear_1940_6517)" stroke-miterlimit="10"/>
<path d="M705.55 183.258C705.55 185.682 703.581 187.673 701.139 187.673C698.697 187.673 696.728 185.702 696.728 183.258C696.728 180.814 698.697 178.844 701.139 178.844C703.581 178.844 705.55 180.814 705.55 183.258Z" stroke="url(#paint24_linear_1940_6517)" stroke-miterlimit="10"/>
<path d="M746.565 187.673C749.001 187.673 750.976 185.696 750.976 183.258C750.976 180.82 749.001 178.844 746.565 178.844C744.129 178.844 742.154 180.82 742.154 183.258C742.154 185.696 744.129 187.673 746.565 187.673Z" stroke="url(#paint25_linear_1940_6517)" stroke-miterlimit="10"/>
<path d="M791.971 187.673C794.407 187.673 796.382 185.696 796.382 183.258C796.382 180.82 794.407 178.844 791.971 178.844C789.535 178.844 787.561 180.82 787.561 183.258C787.561 185.696 789.535 187.673 791.971 187.673Z" stroke="url(#paint26_linear_1940_6517)" stroke-miterlimit="10"/>
<path d="M841.788 183.258C841.788 185.682 839.819 187.673 837.377 187.673C834.936 187.673 832.967 185.702 832.967 183.258C832.967 180.814 834.936 178.844 837.377 178.844C839.819 178.844 841.788 180.814 841.788 183.258Z" stroke="url(#paint27_linear_1940_6517)" stroke-miterlimit="10"/>
<path d="M660.143 216.406C660.143 218.83 658.174 220.82 655.733 220.82C653.291 220.82 651.322 218.85 651.322 216.406C651.322 213.962 653.291 211.991 655.733 211.991C658.174 211.991 660.143 213.962 660.143 216.406Z" stroke="url(#paint28_linear_1940_6517)" stroke-miterlimit="10"/>
<path d="M705.55 216.406C705.55 218.83 703.581 220.82 701.139 220.82C698.697 220.82 696.728 218.85 696.728 216.406C696.728 213.962 698.697 211.991 701.139 211.991C703.581 211.991 705.55 213.962 705.55 216.406Z" stroke="url(#paint29_linear_1940_6517)" stroke-miterlimit="10"/>
<path d="M750.956 216.406C750.956 218.83 748.987 220.82 746.545 220.82C744.104 220.82 742.135 218.85 742.135 216.406C742.135 213.962 744.104 211.991 746.545 211.991C748.987 211.991 750.956 213.962 750.956 216.406Z" stroke="url(#paint30_linear_1940_6517)" stroke-miterlimit="10"/>
<path d="M796.362 216.406C796.362 218.83 794.393 220.82 791.951 220.82C789.51 220.82 787.541 218.85 787.541 216.406C787.541 213.962 789.51 211.991 791.951 211.991C794.393 211.991 796.362 213.962 796.362 216.406Z" stroke="url(#paint31_linear_1940_6517)" stroke-miterlimit="10"/>
<path d="M841.788 216.406C841.788 218.83 839.819 220.82 837.377 220.82C834.936 220.82 832.967 218.85 832.967 216.406C832.967 213.962 834.936 211.991 837.377 211.991C839.819 211.991 841.788 213.962 841.788 216.406Z" stroke="url(#paint32_linear_1940_6517)" stroke-miterlimit="10"/>
</g>
<defs>
<linearGradient id="paint0_linear_1940_6517" x1="938.016" y1="357.003" x2="34.6097" y2="449.543" gradientUnits="userSpaceOnUse">
<stop stop-color="#9C60F3"/>
<stop offset="1" stop-color="#7360F2"/>
</linearGradient>
<linearGradient id="paint1_linear_1940_6517" x1="937.72" y1="596.839" x2="692.858" y2="610.424" gradientUnits="userSpaceOnUse">
<stop stop-color="#9C60F3"/>
<stop offset="1" stop-color="#7360F2"/>
</linearGradient>
<linearGradient id="paint2_linear_1940_6517" x1="62.7142" y1="939.743" x2="-4.26472" y2="945.65" gradientUnits="userSpaceOnUse">
<stop stop-color="#9C60F3"/>
<stop offset="1" stop-color="#7360F2"/>
</linearGradient>
<linearGradient id="paint3_linear_1940_6517" x1="807.015" y1="84.4458" x2="689.004" y2="94.8536" gradientUnits="userSpaceOnUse">
<stop stop-color="#9C60F3"/>
<stop offset="1" stop-color="#7360F2"/>
</linearGradient>
<linearGradient id="paint4_linear_1940_6517" x1="790.278" y1="0.689696" x2="771.141" y2="2.37745" gradientUnits="userSpaceOnUse">
<stop stop-color="#9C60F3"/>
<stop offset="1" stop-color="#7360F2"/>
</linearGradient>
<linearGradient id="paint5_linear_1940_6517" x1="594.357" y1="608.66" x2="550.768" y2="612.504" gradientUnits="userSpaceOnUse">
<stop stop-color="#9C60F3"/>
<stop offset="1" stop-color="#7360F2"/>
</linearGradient>
<linearGradient id="paint6_linear_1940_6517" x1="830.899" y1="531.073" x2="746.102" y2="538.553" gradientUnits="userSpaceOnUse">
<stop stop-color="#9C60F3"/>
<stop offset="1" stop-color="#7360F2"/>
</linearGradient>
<linearGradient id="paint7_linear_1940_6517" x1="591.404" y1="877.665" x2="411.73" y2="893.511" gradientUnits="userSpaceOnUse">
<stop stop-color="#9C60F3"/>
<stop offset="1" stop-color="#7360F2"/>
</linearGradient>
<linearGradient id="paint8_linear_1940_6517" x1="821.29" y1="806.226" x2="778.232" y2="810.023" gradientUnits="userSpaceOnUse">
<stop stop-color="#9C60F3"/>
<stop offset="1" stop-color="#7360F2"/>
</linearGradient>
<linearGradient id="paint9_linear_1940_6517" x1="691.825" y1="970.782" x2="621.933" y2="976.944" gradientUnits="userSpaceOnUse">
<stop stop-color="#9C60F3"/>
<stop offset="1" stop-color="#7360F2"/>
</linearGradient>
<linearGradient id="paint10_linear_1940_6517" x1="372.839" y1="794.894" x2="327.124" y2="798.926" gradientUnits="userSpaceOnUse">
<stop stop-color="#9C60F3"/>
<stop offset="1" stop-color="#7360F2"/>
</linearGradient>
<linearGradient id="paint11_linear_1940_6517" x1="660.872" y1="1005.37" x2="641.735" y2="1007.06" gradientUnits="userSpaceOnUse">
<stop stop-color="#9C60F3"/>
<stop offset="1" stop-color="#7360F2"/>
</linearGradient>
<linearGradient id="paint12_linear_1940_6517" x1="814.458" y1="831.944" x2="783.626" y2="834.663" gradientUnits="userSpaceOnUse">
<stop stop-color="#9C60F3"/>
<stop offset="1" stop-color="#7360F2"/>
</linearGradient>
<linearGradient id="paint13_linear_1940_6517" x1="846.947" y1="987.632" x2="827.81" y2="989.32" gradientUnits="userSpaceOnUse">
<stop stop-color="#9C60F3"/>
<stop offset="1" stop-color="#7360F2"/>
</linearGradient>
<linearGradient id="paint14_linear_1940_6517" x1="934.57" y1="383.603" x2="854.833" y2="390.635" gradientUnits="userSpaceOnUse">
<stop stop-color="#9C60F3"/>
<stop offset="1" stop-color="#7360F2"/>
</linearGradient>
<linearGradient id="paint15_linear_1940_6517" x1="938.016" y1="628.959" x2="925.811" y2="630.035" gradientUnits="userSpaceOnUse">
<stop stop-color="#9C60F3"/>
<stop offset="1" stop-color="#7360F2"/>
</linearGradient>
<linearGradient id="paint16_linear_1940_6517" x1="395.05" y1="148.1" x2="376.977" y2="149.694" gradientUnits="userSpaceOnUse">
<stop stop-color="#9C60F3"/>
<stop offset="1" stop-color="#7360F2"/>
</linearGradient>
<linearGradient id="paint17_linear_1940_6517" x1="573.249" y1="57.4468" x2="490.323" y2="64.7604" gradientUnits="userSpaceOnUse">
<stop stop-color="#9C60F3"/>
<stop offset="1" stop-color="#7360F2"/>
</linearGradient>
<linearGradient id="paint18_linear_1940_6517" x1="660.143" y1="145.676" x2="650.617" y2="146.516" gradientUnits="userSpaceOnUse">
<stop stop-color="#9C60F3"/>
<stop offset="1" stop-color="#7360F2"/>
</linearGradient>
<linearGradient id="paint19_linear_1940_6517" x1="705.55" y1="145.676" x2="696.024" y2="146.516" gradientUnits="userSpaceOnUse">
<stop stop-color="#9C60F3"/>
<stop offset="1" stop-color="#7360F2"/>
</linearGradient>
<linearGradient id="paint20_linear_1940_6517" x1="750.976" y1="145.676" x2="741.45" y2="146.516" gradientUnits="userSpaceOnUse">
<stop stop-color="#9C60F3"/>
<stop offset="1" stop-color="#7360F2"/>
</linearGradient>
<linearGradient id="paint21_linear_1940_6517" x1="796.382" y1="145.676" x2="786.856" y2="146.516" gradientUnits="userSpaceOnUse">
<stop stop-color="#9C60F3"/>
<stop offset="1" stop-color="#7360F2"/>
</linearGradient>
<linearGradient id="paint22_linear_1940_6517" x1="841.788" y1="145.676" x2="832.262" y2="146.516" gradientUnits="userSpaceOnUse">
<stop stop-color="#9C60F3"/>
<stop offset="1" stop-color="#7360F2"/>
</linearGradient>
<linearGradient id="paint23_linear_1940_6517" x1="660.143" y1="178.844" x2="650.617" y2="179.684" gradientUnits="userSpaceOnUse">
<stop stop-color="#9C60F3"/>
<stop offset="1" stop-color="#7360F2"/>
</linearGradient>
<linearGradient id="paint24_linear_1940_6517" x1="705.55" y1="178.844" x2="696.024" y2="179.684" gradientUnits="userSpaceOnUse">
<stop stop-color="#9C60F3"/>
<stop offset="1" stop-color="#7360F2"/>
</linearGradient>
<linearGradient id="paint25_linear_1940_6517" x1="750.976" y1="178.844" x2="741.45" y2="179.684" gradientUnits="userSpaceOnUse">
<stop stop-color="#9C60F3"/>
<stop offset="1" stop-color="#7360F2"/>
</linearGradient>
<linearGradient id="paint26_linear_1940_6517" x1="796.382" y1="178.844" x2="786.856" y2="179.684" gradientUnits="userSpaceOnUse">
<stop stop-color="#9C60F3"/>
<stop offset="1" stop-color="#7360F2"/>
</linearGradient>
<linearGradient id="paint27_linear_1940_6517" x1="841.788" y1="178.844" x2="832.262" y2="179.684" gradientUnits="userSpaceOnUse">
<stop stop-color="#9C60F3"/>
<stop offset="1" stop-color="#7360F2"/>
</linearGradient>
<linearGradient id="paint28_linear_1940_6517" x1="660.143" y1="211.991" x2="650.617" y2="212.832" gradientUnits="userSpaceOnUse">
<stop stop-color="#9C60F3"/>
<stop offset="1" stop-color="#7360F2"/>
</linearGradient>
<linearGradient id="paint29_linear_1940_6517" x1="705.55" y1="211.991" x2="696.024" y2="212.832" gradientUnits="userSpaceOnUse">
<stop stop-color="#9C60F3"/>
<stop offset="1" stop-color="#7360F2"/>
</linearGradient>
<linearGradient id="paint30_linear_1940_6517" x1="750.956" y1="211.991" x2="741.43" y2="212.832" gradientUnits="userSpaceOnUse">
<stop stop-color="#9C60F3"/>
<stop offset="1" stop-color="#7360F2"/>
</linearGradient>
<linearGradient id="paint31_linear_1940_6517" x1="796.362" y1="211.991" x2="786.836" y2="212.832" gradientUnits="userSpaceOnUse">
<stop stop-color="#9C60F3"/>
<stop offset="1" stop-color="#7360F2"/>
</linearGradient>
<linearGradient id="paint32_linear_1940_6517" x1="841.788" y1="211.991" x2="832.262" y2="212.832" gradientUnits="userSpaceOnUse">
<stop stop-color="#9C60F3"/>
<stop offset="1" stop-color="#7360F2"/>
</linearGradient>
<clipPath id="clip0_1940_6517">
<rect width="939" height="1080" fill="white"/>
</clipPath>
</defs>
</svg>
