<svg width="24" height="24" viewBox="0 0 24 24" fill="none" xmlns="http://www.w3.org/2000/svg">
<path d="M12 2C17.5 2 22 6.5 22 12C22 17.5 17.5 22 12 22C6.5 22 2 17.5 2 12C2 6.5 6.5 2 12 2Z" fill="url(#paint0_linear_1940_6712)"/>
<path d="M14.9375 5.75H9C7.1875 5.75 5.75 7.25 5.75 9.125V14.875C5.75 16.6875 7.1875 18.1875 9.0625 18.25H15C16.8125 18.25 18.3125 16.75 18.3125 14.875V9.125C18.25 7.25 16.8125 5.75 14.9375 5.75ZM17.125 14.8125C17.125 16.0625 16.125 17.125 14.8125 17.125H9.125C7.875 17.125 6.8125 16.0625 6.875 14.8125V9.1875C6.875 7.9375 7.875 6.875 9.125 6.875H14.8125C16.0625 6.875 17.125 7.9375 17.125 9.1875V14.8125Z" fill="white"/>
<path d="M12 8.81251C10.25 8.75001 8.75001 10.1875 8.75001 11.9375C8.68751 13.6875 10.125 15.1875 11.875 15.1875C13.625 15.1875 15.125 13.8125 15.125 12.0625V12C15.1875 10.25 13.75 8.81251 12 8.81251ZM12 14.0625C10.875 14.0625 9.93751 13.1875 9.87501 12.0625C9.87501 10.9375 10.75 10 11.875 9.93751C13 9.87501 13.9375 10.8125 14 11.9375V12C14.0625 13.125 13.125 14.0625 12 14.0625Z" fill="white"/>
<path d="M15.3125 7.875C15.6875 7.875 16 8.1875 16 8.625C16 9.0625 15.6875 9.375 15.3125 9.375C14.9375 9.375 14.625 9.0625 14.625 8.625C14.625 8.1875 14.9375 7.875 15.3125 7.875Z" fill="white"/>
<defs>
<linearGradient id="paint0_linear_1940_6712" x1="6.9983" y1="20.6623" x2="17" y2="3.33887" gradientUnits="userSpaceOnUse">
<stop stop-color="#FEC053"/>
<stop offset="0.327" stop-color="#F2203E"/>
<stop offset="0.648" stop-color="#B729A8"/>
<stop offset="1" stop-color="#5342D6"/>
</linearGradient>
</defs>
</svg>
