<?xml version="1.0" encoding="UTF-8"?>
<!DOCTYPE svg PUBLIC "-//W3C//DTD SVG 1.1//EN" "http://www.w3.org/Graphics/SVG/1.1/DTD/svg11.dtd">
<svg xmlns="http://www.w3.org/2000/svg" version="1.1" width="255px" height="128px" style="shape-rendering:geometricPrecision; text-rendering:geometricPrecision; image-rendering:optimizeQuality; fill-rule:evenodd; clip-rule:evenodd" xmlns:xlink="http://www.w3.org/1999/xlink">
<g><path style="opacity:1" fill="#04abc1" d="M -0.5,-0.5 C 84.5,-0.5 169.5,-0.5 254.5,-0.5C 254.5,42.1667 254.5,84.8333 254.5,127.5C 169.5,127.5 84.5,127.5 -0.5,127.5C -0.5,84.8333 -0.5,42.1667 -0.5,-0.5 Z"/></g>
<g><path style="opacity:1" fill="#91cd75" d="M 11.5,9.5 C 10.9068,12.0036 11.5735,14.3369 13.5,16.5C 12.1667,16.5 10.8333,16.5 9.5,16.5C 10.0138,14.4884 10.1805,12.4884 10,10.5C 9.61742,11.056 9.11742,11.3893 8.5,11.5C 8.71351,9.85613 8.38017,8.35613 7.5,7C 8.16667,6.33333 8.83333,6.33333 9.5,7C 10.0659,7.9947 10.7326,8.82803 11.5,9.5 Z"/></g>
<g><path style="opacity:1" fill="#80c880" d="M 13.5,24.5 C 12.1667,26.5 10.8333,28.5 9.5,30.5C 9.08247,29.7784 8.4158,29.2784 7.5,29C 7.72845,28.6012 8.06178,28.4346 8.5,28.5C 9.66513,27.5039 10.3318,26.1705 10.5,24.5C 8.68081,21.1382 9.68081,19.4715 13.5,19.5C 13.5,21.1667 13.5,22.8333 13.5,24.5 Z"/></g>
<g><path style="opacity:1" fill="#d8e14b" d="M 138.5,31.5 C 138.179,33.0481 137.179,33.7148 135.5,33.5C 135.687,31.4357 136.187,29.4357 137,27.5C 138.188,28.5634 138.688,29.8967 138.5,31.5 Z"/></g>
<g><path style="opacity:1" fill="#f1e839" d="M 142.5,28.5 C 142.785,30.288 142.452,31.9547 141.5,33.5C 140.702,33.0431 140.369,32.3764 140.5,31.5C 140.626,29.3784 141.293,28.3784 142.5,28.5 Z"/></g>
<g><path style="opacity:1" fill="#dfe344" d="M 130.5,33.5 C 130.196,35.7957 129.196,36.129 127.5,34.5C 127.112,28.3008 128.112,27.9675 130.5,33.5 Z"/></g>
<g><path style="opacity:1" fill="#dae247" d="M 134.5,33.5 C 133.5,33.5 132.5,33.5 131.5,33.5C 131.523,25.8234 132.523,25.8234 134.5,33.5 Z"/></g>
<g><path style="opacity:1" fill="#d8e149" d="M 147.5,31.5 C 146.839,32.7175 146.172,34.0508 145.5,35.5C 143.481,34.8671 143.147,33.8671 144.5,32.5C 145.678,29.7835 146.678,29.4501 147.5,31.5 Z"/></g>
<g><path style="opacity:1" fill="#dae24a" d="M 126.5,34.5 C 126.306,38.0048 125.306,38.3382 123.5,35.5C 122.972,34.1526 122.805,32.8193 123,31.5C 124.039,32.7101 125.206,33.7101 126.5,34.5 Z"/></g>
<g><path style="opacity:1" fill="#dde344" d="M 150.5,36.5 C 147.739,37.3498 147.072,36.3498 148.5,33.5C 151.702,31.2076 152.369,32.2076 150.5,36.5 Z"/></g>
<g><path style="opacity:1" fill="#dbe246" d="M 153.5,39.5 C 150.752,39.5983 150.086,38.5983 151.5,36.5C 155.985,33.7625 156.652,34.7625 153.5,39.5 Z"/></g>
<g><path style="opacity:1" fill="#e5e543" d="M 122.5,36.5 C 123.833,39.1667 123.167,39.8333 120.5,38.5C 117.589,34.2881 118.256,33.6215 122.5,36.5 Z"/></g>
<g><path style="opacity:1" fill="#cede51" d="M 156.5,42.5 C 153.752,42.5983 153.086,41.5983 154.5,39.5C 160.142,37.6908 160.809,38.6908 156.5,42.5 Z"/></g>
<g><path style="opacity:1" fill="#e3e441" d="M 119.5,39.5 C 122.338,41.3059 122.005,42.3059 118.5,42.5C 117.71,41.2058 116.71,40.0391 115.5,39C 116.819,38.805 118.153,38.9717 119.5,39.5 Z"/></g>
<g><path style="opacity:1" fill="#32b1b2" d="M 142.5,28.5 C 143.167,29.8333 143.833,31.1667 144.5,32.5C 143.147,33.8671 143.481,34.8671 145.5,35.5C 146.172,34.0508 146.839,32.7175 147.5,31.5C 147.328,32.4916 147.662,33.1583 148.5,33.5C 147.072,36.3498 147.739,37.3498 150.5,36.5C 150.833,36.5 151.167,36.5 151.5,36.5C 150.086,38.5983 150.752,39.5983 153.5,39.5C 153.833,39.5 154.167,39.5 154.5,39.5C 153.086,41.5983 153.752,42.5983 156.5,42.5C 158.288,42.2148 159.955,42.5481 161.5,43.5C 161.376,44.1067 161.043,44.44 160.5,44.5C 159.081,43.5489 157.415,43.2155 155.5,43.5C 155.285,45.1788 155.952,46.1788 157.5,46.5C 157.5,46.8333 157.5,47.1667 157.5,47.5C 156.115,48.9473 156.448,49.9473 158.5,50.5C 159.5,51.1667 160.5,51.8333 161.5,52.5C 159.712,52.2148 158.045,52.5481 156.5,53.5C 157.325,54.3857 158.325,54.719 159.5,54.5C 159.5,55.1667 159.5,55.8333 159.5,56.5C 158.325,56.281 157.325,56.6143 156.5,57.5C 158.636,58.7928 160.636,58.7928 162.5,57.5C 163.043,57.56 163.376,57.8933 163.5,58.5C 161.369,59.1687 159.369,59.8354 157.5,60.5C 155.204,60.8041 154.871,61.8041 156.5,63.5C 156.5,63.8333 156.5,64.1667 156.5,64.5C 153.061,63.8555 152.728,64.8555 155.5,67.5C 154.833,67.5 154.5,67.8333 154.5,68.5C 150.833,66.1667 150.167,66.8333 152.5,70.5C 151.662,70.8417 151.328,71.5084 151.5,72.5C 150.735,71.3398 149.735,70.3398 148.5,69.5C 147.438,70.4246 147.438,71.4246 148.5,72.5C 147.833,72.5 147.5,72.8333 147.5,73.5C 146.844,72.7222 146.011,72.0556 145,71.5C 143.97,71.8361 143.47,72.5028 143.5,73.5C 143.799,75.604 143.466,77.604 142.5,79.5C 141.893,79.3764 141.56,79.0431 141.5,78.5C 142.793,76.6365 142.793,74.6365 141.5,72.5C 140.614,73.325 140.281,74.325 140.5,75.5C 139.833,75.5 139.167,75.5 138.5,75.5C 138.306,71.9952 137.306,71.6618 135.5,74.5C 135.167,74.5 134.833,74.5 134.5,74.5C 133.947,72.4482 132.947,72.1148 131.5,73.5C 131.167,73.5 130.833,73.5 130.5,73.5C 130.179,71.9519 129.179,71.2852 127.5,71.5C 127.167,71.5 126.833,71.5 126.5,71.5C 126.196,69.2043 125.196,68.871 123.5,70.5C 123.167,70.5 122.833,70.5 122.5,70.5C 124.066,67.5056 123.399,66.5056 120.5,67.5C 119.833,67.5 119.167,67.5 118.5,67.5C 122.506,64.8503 122.173,63.8503 117.5,64.5C 117.158,63.6618 116.492,63.3284 115.5,63.5C 116.718,62.8386 118.051,62.1719 119.5,61.5C 118.675,60.6143 117.675,60.281 116.5,60.5C 114.958,59.8365 113.291,59.1698 111.5,58.5C 111.624,57.8933 111.957,57.56 112.5,57.5C 114.035,58.7879 115.701,58.7879 117.5,57.5C 117.043,56.7025 116.376,56.3691 115.5,56.5C 115.5,55.8333 115.5,55.1667 115.5,54.5C 116.376,54.6309 117.043,54.2975 117.5,53.5C 116.675,52.6143 115.675,52.281 114.5,52.5C 115.167,51.8333 115.833,51.1667 116.5,50.5C 117.404,49.791 117.737,48.791 117.5,47.5C 117.5,47.1667 117.5,46.8333 117.5,46.5C 119.796,46.1959 120.129,45.1959 118.5,43.5C 118.5,43.1667 118.5,42.8333 118.5,42.5C 122.005,42.3059 122.338,41.3059 119.5,39.5C 120.167,39.5 120.5,39.1667 120.5,38.5C 123.167,39.8333 123.833,39.1667 122.5,36.5C 123.167,36.5 123.5,36.1667 123.5,35.5C 125.306,38.3382 126.306,38.0048 126.5,34.5C 126.833,34.5 127.167,34.5 127.5,34.5C 129.196,36.129 130.196,35.7957 130.5,33.5C 130.833,33.5 131.167,33.5 131.5,33.5C 132.5,33.5 133.5,33.5 134.5,33.5C 134.833,33.5 135.167,33.5 135.5,33.5C 137.179,33.7148 138.179,33.0481 138.5,31.5C 139.167,31.5 139.833,31.5 140.5,31.5C 140.369,32.3764 140.702,33.0431 141.5,33.5C 142.452,31.9547 142.785,30.288 142.5,28.5 Z"/></g>
<g><path style="opacity:1" fill="#fbeb30" d="M 131.5,36.5 C 147.299,34.8028 154.799,41.8028 154,57.5C 148.21,70.4301 139.043,73.5967 126.5,67C 120.014,60.0196 118.847,52.1863 123,43.5C 125.441,40.5464 128.275,38.2131 131.5,36.5 Z"/></g>
<g><path style="opacity:1" fill="#e6e53f" d="M 118.5,43.5 C 120.129,45.1959 119.796,46.1959 117.5,46.5C 113.188,44.1471 113.522,43.1471 118.5,43.5 Z"/></g>
<g><path style="opacity:1" fill="#efe838" d="M 160.5,44.5 C 159.29,44.9321 158.29,45.5987 157.5,46.5C 155.952,46.1788 155.285,45.1788 155.5,43.5C 157.415,43.2155 159.081,43.5489 160.5,44.5 Z"/></g>
<g><path style="opacity:1" fill="#d9e248" d="M 117.5,47.5 C 117.737,48.791 117.404,49.791 116.5,50.5C 109.689,48.1007 110.023,47.1007 117.5,47.5 Z"/></g>
<g><path style="opacity:1" fill="#dbe246" d="M 157.5,47.5 C 163.699,47.1118 164.033,48.1118 158.5,50.5C 156.448,49.9473 156.115,48.9473 157.5,47.5 Z"/></g>
<g><path style="opacity:1" fill="#e8e53f" d="M 114.5,52.5 C 115.675,52.281 116.675,52.6143 117.5,53.5C 117.043,54.2975 116.376,54.6309 115.5,54.5C 111.194,53.9342 110.861,53.2675 114.5,52.5 Z"/></g>
<g><path style="opacity:1" fill="#e5e541" d="M 161.5,52.5 C 161.938,52.4346 162.272,52.6012 162.5,53C 161.473,53.5133 160.473,54.0133 159.5,54.5C 158.325,54.719 157.325,54.3857 156.5,53.5C 158.045,52.5481 159.712,52.2148 161.5,52.5 Z"/></g>
<g><path style="opacity:1" fill="#f3e936" d="M 115.5,56.5 C 116.376,56.3691 117.043,56.7025 117.5,57.5C 115.701,58.7879 114.035,58.7879 112.5,57.5C 113.391,56.8902 114.391,56.5569 115.5,56.5 Z"/></g>
<g><path style="opacity:1" fill="#f1e837" d="M 159.5,56.5 C 160.391,57.1098 161.391,57.4431 162.5,57.5C 160.636,58.7928 158.636,58.7928 156.5,57.5C 157.325,56.6143 158.325,56.281 159.5,56.5 Z"/></g>
<g><path style="opacity:1" fill="#9bcf70" d="M 16.5,58.5 C 16.8333,58.5 17.1667,58.5 17.5,58.5C 19.5,58.5 20.5,59.5 20.5,61.5C 16.5909,63.2407 15.2576,62.2407 16.5,58.5 Z"/></g>
<g><path style="opacity:1" fill="#e4e442" d="M 153.5,79.5 C 160.788,74.2783 165.621,67.2783 168,58.5C 168.333,60.1667 168.667,61.8333 169,63.5C 169.878,60.743 170.878,58.0763 172,55.5C 172.798,58.7107 172.298,61.7107 170.5,64.5C 170.667,64.8333 170.833,65.1667 171,65.5C 172.041,63.4148 173.541,61.7481 175.5,60.5C 175.833,60.8333 176.167,61.1667 176.5,61.5C 174.732,63.7015 173.565,66.0348 173,68.5C 174,67.5 175,66.5 176,65.5C 175.107,68.4362 173.274,70.9362 170.5,73C 171.738,72.9227 172.738,73.0894 173.5,73.5C 171.874,74.9905 170.208,76.4905 168.5,78C 168.833,78.3333 169.167,78.6667 169.5,79C 167.796,81.5471 165.463,83.0471 162.5,83.5C 160.987,87.5912 157.987,89.0912 153.5,88C 155.246,87.5291 156.913,86.8624 158.5,86C 161.871,81.9687 165.204,77.9687 168.5,74C 166.431,73.6758 166.098,72.8425 167.5,71.5C 167,71.1667 166.5,70.8333 166,70.5C 163.034,72.2981 160.534,74.6314 158.5,77.5C 156.925,78.4565 155.258,79.1231 153.5,79.5 Z"/></g>
<g><path style="opacity:1" fill="#ebe639" d="M 20.5,61.5 C 20.5,59.5 19.5,58.5 17.5,58.5C 19.6447,51.8387 20.978,52.172 21.5,59.5C 21.4573,60.4164 21.1239,61.0831 20.5,61.5 Z"/></g>
<g><path style="opacity:1" fill="#dee344" d="M 116.5,60.5 C 117.675,60.281 118.675,60.6143 119.5,61.5C 118.051,62.1719 116.718,62.8386 115.5,63.5C 113.45,62.6782 113.783,61.6782 116.5,60.5 Z"/></g>
<g><path style="opacity:1" fill="#e3e443" d="M 119.5,78.5 C 118.448,78.6495 117.448,78.4828 116.5,78C 113.267,74.7669 110.1,71.6003 107,68.5C 106.5,68.8333 106,69.1667 105.5,69.5C 105.309,71.8042 105.643,74.1375 106.5,76.5C 104.063,76.114 102.063,74.9473 100.5,73C 101.167,72.6667 101.833,72.3333 102.5,72C 100.649,70.3163 98.982,68.4829 97.5,66.5C 98.6034,66.0024 99.6034,65.6691 100.5,65.5C 98.6671,64.0316 98.3338,62.3649 99.5,60.5C 100.333,61.5 101.167,62.5 102,63.5C 101.649,61.1141 101.815,58.7808 102.5,56.5C 103.934,58.2199 104.767,60.2199 105,62.5C 105.219,61.062 105.719,59.7287 106.5,58.5C 108.5,66.8053 112.833,73.4719 119.5,78.5 Z"/></g>
<g><path style="opacity:1" fill="#c2db58" d="M 157.5,60.5 C 163.033,62.8882 162.699,63.8882 156.5,63.5C 154.871,61.8041 155.204,60.8041 157.5,60.5 Z"/></g>
<g><path style="opacity:1" fill="#dce345" d="M 118.5,67.5 C 116.204,67.1959 115.871,66.1959 117.5,64.5C 122.173,63.8503 122.506,64.8503 118.5,67.5 Z"/></g>
<g><path style="opacity:1" fill="#7cc782" d="M 21.5,69.5 C 21.702,71.9496 21.3686,74.283 20.5,76.5C 18.4728,73.6163 16.8062,70.4496 15.5,67C 17.0527,63.7171 18.7194,63.7171 20.5,67C 19.6721,67.9147 18.6721,68.5814 17.5,69C 18.4601,70.4194 19.2935,71.9194 20,73.5C 20.21,71.9419 20.71,70.6085 21.5,69.5 Z"/></g>
<g><path style="opacity:1" fill="#e5e540" d="M 156.5,64.5 C 156.953,65.4584 157.619,66.2917 158.5,67C 157.552,67.4828 156.552,67.6495 155.5,67.5C 152.728,64.8555 153.061,63.8555 156.5,64.5 Z"/></g>
<g><path style="opacity:1" fill="#dde345" d="M 122.5,70.5 C 119.313,71.8367 118.646,70.8367 120.5,67.5C 123.399,66.5056 124.066,67.5056 122.5,70.5 Z"/></g>
<g><path style="opacity:1" fill="#e7e53d" d="M 154.5,68.5 C 156.124,71.3584 155.457,72.0251 152.5,70.5C 150.167,66.8333 150.833,66.1667 154.5,68.5 Z"/></g>
<g><path style="opacity:1" fill="#f3e934" d="M 151.5,72.5 C 151.631,73.2389 151.464,73.9056 151,74.5C 150.292,73.6195 149.458,72.9528 148.5,72.5C 147.438,71.4246 147.438,70.4246 148.5,69.5C 149.735,70.3398 150.735,71.3398 151.5,72.5 Z"/></g>
<g><path style="opacity:1" fill="#e3e442" d="M 127.5,71.5 C 129.179,71.2852 130.179,71.9519 130.5,73.5C 127.917,77.4434 126.917,76.7767 127.5,71.5 Z"/></g>
<g><path style="opacity:1" fill="#d7e14a" d="M 147.5,73.5 C 147.657,74.8734 147.49,76.2068 147,77.5C 146.051,75.9069 144.885,74.5736 143.5,73.5C 143.47,72.5028 143.97,71.8361 145,71.5C 146.011,72.0556 146.844,72.7222 147.5,73.5 Z"/></g>
<g><path style="opacity:1" fill="#cfdf4e" d="M 126.5,71.5 C 122.922,77.1142 121.922,76.7809 123.5,70.5C 125.196,68.871 126.196,69.2043 126.5,71.5 Z"/></g>
<g><path style="opacity:1" fill="#d8e248" d="M 134.5,74.5 C 132.112,80.0325 131.112,79.6992 131.5,73.5C 132.947,72.1148 133.947,72.4482 134.5,74.5 Z"/></g>
<g><path style="opacity:1" fill="#c5dc59" d="M 138.5,75.5 C 138.688,77.1033 138.188,78.4366 137,79.5C 136.392,77.8455 135.892,76.1789 135.5,74.5C 137.306,71.6618 138.306,71.9952 138.5,75.5 Z"/></g>
<g><path style="opacity:1" fill="#f2e836" d="M 141.5,78.5 C 141.443,77.391 141.11,76.391 140.5,75.5C 140.281,74.325 140.614,73.325 141.5,72.5C 142.793,74.6365 142.793,76.6365 141.5,78.5 Z"/></g>
<g><path style="opacity:1" fill="#b3d85e" d="M 106.5,76.5 C 107.239,76.369 107.906,76.5357 108.5,77C 110.474,80.6395 113.141,83.6395 116.5,86C 115.5,86.6667 114.5,86.6667 113.5,86C 110.177,83.6758 107.177,81.0092 104.5,78C 105.416,77.7216 106.082,77.2216 106.5,76.5 Z"/></g>
<g><path style="opacity:1" fill="#cfdf50" d="M 119.5,78.5 C 125.181,81.3729 131.181,83.3729 137.5,84.5C 142.774,82.8352 148.108,81.1686 153.5,79.5C 150.349,83.7993 146.016,85.6327 140.5,85C 138.922,86.0945 137.255,86.9278 135.5,87.5C 135.586,86.5041 135.252,85.6708 134.5,85C 128.031,85.9222 123.031,83.7555 119.5,78.5 Z"/></g>
<g><path style="opacity:1" fill="#a9d561" d="M 135.5,87.5 C 135.027,88.9063 134.027,89.573 132.5,89.5C 132.973,88.0937 133.973,87.427 135.5,87.5 Z"/></g>
<g><path style="opacity:1" fill="#fceb2e" d="M 132.5,93.5 C 129.959,93.8514 128.292,93.5181 127.5,92.5C 128.93,92.5792 130.264,92.2458 131.5,91.5C 132.298,91.9569 132.631,92.6236 132.5,93.5 Z"/></g>
<g><path style="opacity:1" fill="#e5e540" d="M 148.5,90.5 C 152.013,90.3075 155.346,90.9741 158.5,92.5C 153.634,94.5605 148.967,96.2272 144.5,97.5C 140.352,97.3998 136.018,97.2331 131.5,97C 132.328,96.0853 133.328,95.4186 134.5,95C 138.167,94.6667 141.833,94.3333 145.5,94C 147.056,93.2798 148.056,92.1132 148.5,90.5 Z"/></g>
<g><path style="opacity:1" fill="#a0d367" d="M 132.5,89.5 C 132.944,91.1132 133.944,92.2798 135.5,93C 134.552,93.4828 133.552,93.6495 132.5,93.5C 132.631,92.6236 132.298,91.9569 131.5,91.5C 130.264,92.2458 128.93,92.5792 127.5,92.5C 128.3,90.2591 129.966,89.2591 132.5,89.5 Z"/></g>
<g><path style="opacity:1" fill="#dee344" d="M 16.5,12.5 C 15.0639,15.5699 16.0639,16.7366 19.5,16C 19.9863,13.9734 19.9863,11.8067 19.5,9.5C 19.5199,7.44881 20.1866,6.78214 21.5,7.5C 21.2351,12.4951 21.2351,17.1618 21.5,21.5C 19.3869,26.072 19.5535,30.4053 22,34.5C 22.8959,37.025 22.3959,39.1917 20.5,41C 21.8045,41.804 22.4712,42.9707 22.5,44.5C 20.4906,49.1831 18.4906,53.8497 16.5,58.5C 15.2576,62.2407 16.5909,63.2407 20.5,61.5C 20.8333,64.1667 21.1667,66.8333 21.5,69.5C 20.71,70.6085 20.21,71.9419 20,73.5C 19.2935,71.9194 18.4601,70.4194 17.5,69C 18.6721,68.5814 19.6721,67.9147 20.5,67C 18.7194,63.7171 17.0527,63.7171 15.5,67C 16.8062,70.4496 18.4728,73.6163 20.5,76.5C 21.1557,78.484 21.8224,80.484 22.5,82.5C 22.4712,84.0293 21.8045,85.196 20.5,86C 21.8045,86.804 22.4712,87.9707 22.5,89.5C 21.6917,92.5917 20.6917,95.5917 19.5,98.5C 20.5316,100.434 21.1983,102.6 21.5,105C 21.27,107.552 21.27,110.052 21.5,112.5C 21.2222,115.046 20.5556,116.713 19.5,117.5C 19.3573,115.738 19.6906,114.071 20.5,112.5C 18.8333,109.833 17.1667,109.833 15.5,112.5C 16.1667,112.833 16.8333,113.167 17.5,113.5C 17.0798,115.326 17.0798,117.326 17.5,119.5C 16.0536,120.613 14.3869,120.78 12.5,120C 11.6634,118.989 11.33,117.822 11.5,116.5C 11.017,114.696 11.6837,113.029 13.5,111.5C 12.3112,110.571 10.9778,110.238 9.5,110.5C 9.83333,112.5 10.1667,114.5 10.5,116.5C 10.4784,118.8 9.47843,119.967 7.5,120C 8.83333,112.667 8.83333,105.333 7.5,98C 8.43677,97.3083 9.10343,97.475 9.5,98.5C 9.75115,100.17 10.4178,101.67 11.5,103C 8.6815,105.869 9.34817,107.369 13.5,107.5C 13.5,105.833 13.5,104.167 13.5,102.5C 12.5,101.167 11.5,99.8333 10.5,98.5C 9.36655,95.7291 8.36655,92.8958 7.5,90C 7.43928,88.2894 8.10595,86.956 9.5,86C 7.58187,84.2298 7.08187,82.0631 8,79.5C 8.83333,77.8333 9.66667,76.1667 10.5,74.5C 10.1543,73.3044 9.65431,73.3044 9,74.5C 8.33333,67.1667 8.33333,59.8333 9,52.5C 9.38258,53.056 9.88258,53.3893 10.5,53.5C 9.36655,50.7291 8.36655,47.8958 7.5,45C 7.43928,43.2894 8.10595,41.956 9.5,41C 8.10595,40.044 7.43928,38.7106 7.5,37C 8.0329,34.7739 8.69957,32.6073 9.5,30.5C 10.8333,28.5 12.1667,26.5 13.5,24.5C 13.5,22.8333 13.5,21.1667 13.5,19.5C 9.68081,19.4715 8.68081,21.1382 10.5,24.5C 10.3318,26.1705 9.66513,27.5039 8.5,28.5C 8.5,22.8333 8.5,17.1667 8.5,11.5C 9.11742,11.3893 9.61742,11.056 10,10.5C 10.1805,12.4884 10.0138,14.4884 9.5,16.5C 10.8333,16.5 12.1667,16.5 13.5,16.5C 11.5735,14.3369 10.9068,12.0036 11.5,9.5C 11.4142,8.5041 11.7476,7.67076 12.5,7C 14.1341,6.50649 15.8008,6.33982 17.5,6.5C 17.6747,8.6208 17.3414,10.6208 16.5,12.5 Z"/></g>
<g><path style="opacity:1" fill="#3db5a9" d="M 9.5,91.5 C 10.4728,92.7914 11.4728,92.7914 12.5,91.5C 12.7351,94.2197 13.0684,96.8864 13.5,99.5C 11.659,97.1515 10.3257,94.4848 9.5,91.5 Z"/></g>
<g><path style="opacity:1" fill="#40b5aa" d="M 19.5,92.5 C 18.5655,96.3728 17.0655,100.039 15,103.5C 14.6174,102.944 14.1174,102.611 13.5,102.5C 13.5,101.5 13.5,100.5 13.5,99.5C 14.9308,98.5542 16.2642,97.3875 17.5,96C 15.9632,94.8904 15.2965,93.3904 15.5,91.5C 16.9587,91.4326 18.2921,91.7659 19.5,92.5 Z"/></g>
<g><path style="opacity:1" fill="#54bd98" d="M 9.5,91.5 C 7.96519,88.6702 8.96519,87.3369 12.5,87.5C 12.6495,88.552 12.4828,89.552 12,90.5C 10.841,89.434 10.0076,89.7673 9.5,91.5 Z"/></g>
<g><path style="opacity:1" fill="#3fb8a3" d="M 19.5,92.5 C 19.5198,90.857 18.8532,89.5237 17.5,88.5C 19.378,87.339 20.378,88.0056 20.5,90.5C 20.4573,91.4164 20.1239,92.0831 19.5,92.5 Z"/></g>
<g><path style="opacity:1" fill="#38b3ae" d="M 13.5,84.5 C 17.8187,84.8418 18.3187,86.1751 15,88.5C 12.988,87.4335 12.488,86.1002 13.5,84.5 Z"/></g>
<g><path style="opacity:1" fill="#68c091" d="M 10.5,78.5 C 10.8333,79.1667 11.1667,79.8333 11.5,80.5C 10.9033,80.7352 10.5699,81.2352 10.5,82C 10.8919,83.0105 11.5585,83.5105 12.5,83.5C 11.3493,84.731 10.1827,84.731 9,83.5C 8.40137,81.4652 8.90137,79.7985 10.5,78.5 Z"/></g>
<g><path style="opacity:1" fill="#3fb4ab" d="M 14.5,69.5 C 17.8696,73.9124 19.8696,78.9124 20.5,84.5C 18.8967,84.6882 17.5634,84.1882 16.5,83C 17.4491,82.3828 18.2825,82.5494 19,83.5C 19.6174,80.8236 18.7841,80.157 16.5,81.5C 15.1696,79.6531 15.503,78.1531 17.5,77C 16.1068,75.8289 15.2735,74.3289 15,72.5C 14,73.8333 13,75.1667 12,76.5C 12.2204,74.0369 13.0538,71.7035 14.5,69.5 Z"/></g>
<g><path style="opacity:1" fill="#01abc1" d="M 11.5,80.5 C 11.1667,79.8333 10.8333,79.1667 10.5,78.5C 11.209,77.596 12.209,77.2627 13.5,77.5C 13.7148,79.1788 13.0481,80.1788 11.5,80.5 Z"/></g>
<g><path style="opacity:1" fill="#75c782" d="M 10.5,64.5 C 13.2436,65.0717 14.0769,66.7383 13,69.5C 11.9887,68.6634 10.8221,68.33 9.5,68.5C 9.43255,67.0413 9.76589,65.7079 10.5,64.5 Z"/></g>
<g><path style="opacity:1" fill="#2db2b1" d="M 13.5,62.5 C 15.337,62.6395 15.6704,63.3061 14.5,64.5C 13.7025,64.0431 13.3691,63.3764 13.5,62.5 Z"/></g>
<g><path style="opacity:1" fill="#75c782" d="M 12.5,57.5 C 13.9405,59.4199 13.6071,61.0866 11.5,62.5C 9.88882,61.6798 9.22216,60.3464 9.5,58.5C 10.791,58.7373 11.791,58.404 12.5,57.5 Z"/></g>
<g><path style="opacity:1" fill="#49bb9d" d="M 10.5,53.5 C 11.6737,54.5137 12.3404,55.847 12.5,57.5C 10.8235,56.8166 10.1568,55.4832 10.5,53.5 Z"/></g>
<g><path style="opacity:1" fill="#44b6a8" d="M 9.5,42.5 C 10.675,42.281 11.675,42.6143 12.5,43.5C 8.26522,44.5539 8.59855,45.5539 13.5,46.5C 12.3711,49.3324 12.8711,51.999 15,54.5C 15.2735,52.6711 16.1068,51.1711 17.5,50C 15.503,48.8469 15.1696,47.3469 16.5,45.5C 18.7841,46.843 19.6174,46.1764 19,43.5C 18.2825,44.4506 17.4491,44.6172 16.5,44C 17.5634,42.8118 18.8967,42.3118 20.5,42.5C 19.8217,47.8691 17.9884,52.8691 15,57.5C 11.3558,52.9314 9.5225,47.9314 9.5,42.5 Z"/></g>
<g><path style="opacity:1" fill="#3bb4ac" d="M 14.5,38.5 C 18.1806,40.1196 18.1806,41.4529 14.5,42.5C 12.2064,41.3746 12.2064,40.0412 14.5,38.5 Z"/></g>
<g><path style="opacity:1" fill="#4db8a2" d="M 19.5,34.5 C 20.4511,35.9187 20.7845,37.5853 20.5,39.5C 19.325,39.719 18.325,39.3857 17.5,38.5C 18.8532,37.4763 19.5198,36.143 19.5,34.5 Z"/></g>
<g><path style="opacity:1" fill="#4eba9f" d="M 9.5,35.5 C 10.0076,37.2327 10.841,37.566 12,36.5C 12.4828,37.448 12.6495,38.448 12.5,39.5C 8.96519,39.6631 7.96519,38.3298 9.5,35.5 Z"/></g>
<g><path style="opacity:1" fill="#27b1b3" d="M 17.5,30.5 C 18.6737,31.5137 19.3404,32.847 19.5,34.5C 18.2921,35.2341 16.9587,35.5674 15.5,35.5C 15.3915,33.4862 16.0582,31.8195 17.5,30.5 Z"/></g>
<g><path style="opacity:1" fill="#2ab1b4" d="M 13.5,27.5 C 12.6469,29.5971 12.6469,31.5971 13.5,33.5C 13.1667,34.1667 12.8333,34.8333 12.5,35.5C 11.4728,34.2086 10.4728,34.2086 9.5,35.5C 10.3257,32.5152 11.659,29.8485 13.5,27.5 Z"/></g>
<g><path style="opacity:1" fill="#4fb8a2" d="M 16.5,25.5 C 17.038,27.1172 17.3713,28.7839 17.5,30.5C 16.1667,29.5 14.8333,28.5 13.5,27.5C 13.5,26.5 13.5,25.5 13.5,24.5C 14.1174,24.3893 14.6174,24.056 15,23.5C 15.2784,24.4158 15.7784,25.0825 16.5,25.5 Z"/></g>
<g><path style="opacity:1" fill="#88cb7a" d="M 16.5,25.5 C 16.5394,24.4168 16.8728,23.4168 17.5,22.5C 17.1543,21.3044 16.6543,21.3044 16,22.5C 15.6992,19.9085 16.8659,19.0752 19.5,20C 19.9574,20.414 20.2907,20.914 20.5,21.5C 19.1936,22.9122 18.3603,24.5789 18,26.5C 17.6174,25.944 17.1174,25.6107 16.5,25.5 Z"/></g>
<g><path style="opacity:1" fill="#30b2b0" d="M 14.5,16.5 C 16.7602,17.2376 16.9269,18.2376 15,19.5C 13.2716,18.6477 13.105,17.6477 14.5,16.5 Z"/></g>
<g><path style="opacity:1" fill="#a1d16e" d="M 19.5,9.5 C 19.9863,11.8067 19.9863,13.9734 19.5,16C 16.0639,16.7366 15.0639,15.5699 16.5,12.5C 17.8999,11.9002 18.8999,10.9002 19.5,9.5 Z"/></g>
<g><path style="opacity:1" fill="#25b0b6" d="M 13.5,8.5 C 16.9983,8.56527 17.4983,9.8986 15,12.5C 13.8118,11.4366 13.3118,10.1033 13.5,8.5 Z"/></g>
<g><path style="opacity:1" fill="#7bc685" d="M 19.5,98.5 C 18.4905,101.244 18.8238,103.577 20.5,105.5C 18.8333,108.167 17.1667,108.167 15.5,105.5C 15.8457,104.304 16.3457,104.304 17,105.5C 16.6093,102.906 17.4427,100.573 19.5,98.5 Z"/></g>
<g><path style="opacity:1" fill="#82c87f" d="M 9.5,98.5 C 9.83333,98.5 10.1667,98.5 10.5,98.5C 11.5,99.8333 12.5,101.167 13.5,102.5C 13.5,104.167 13.5,105.833 13.5,107.5C 9.34817,107.369 8.6815,105.869 11.5,103C 10.4178,101.67 9.75115,100.17 9.5,98.5 Z"/></g>
<g><path style="opacity:1" fill="#31b2b0" d="M 14.5,107.5 C 16.7602,108.238 16.9269,109.238 15,110.5C 13.2716,109.648 13.105,108.648 14.5,107.5 Z"/></g>
<g><path style="opacity:1" fill="#84c97e" d="M 11.5,116.5 C 11.1667,116.5 10.8333,116.5 10.5,116.5C 10.1667,114.5 9.83333,112.5 9.5,110.5C 10.9778,110.238 12.3112,110.571 13.5,111.5C 11.6837,113.029 11.017,114.696 11.5,116.5 Z"/></g>
<g><path style="opacity:1" fill="#91cd74" d="M 19.5,117.5 C 18.8333,118.167 18.1667,118.833 17.5,119.5C 17.0798,117.326 17.0798,115.326 17.5,113.5C 16.8333,113.167 16.1667,112.833 15.5,112.5C 17.1667,109.833 18.8333,109.833 20.5,112.5C 19.6906,114.071 19.3573,115.738 19.5,117.5 Z"/></g>
<g><path style="opacity:1" fill="#2db2b2" d="M 14.5,114.5 C 17.3465,116.798 17.0132,118.131 13.5,118.5C 13.4326,117.041 13.7659,115.708 14.5,114.5 Z"/></g>
</svg>
